<?xml version="1.0" encoding="utf-8"?>
<svg xmlns="http://www.w3.org/2000/svg" xmlns:xlink="http://www.w3.org/1999/xlink" width="348pt" height="348pt" viewBox="0 0 348 348" version="1.1">
  <style type="text/css"><![CDATA[.fil0{fill:#FFFFFF}
.fil1{fill:#E6E6E6}
.fil2{fill:#0E0E0E}
.fil3{fill:#D10000}
.fil4{fill:#F7FB0F}
]]></style>
  <g id="surface1">
    <path style="fill-rule:nonzero;fill-opacity:1;" d="M 277.96875 128.527344 L 277.976563 128.523438 C 277.96875 128.53125 277.960938 128.535156 277.953125 128.539063 C 277.957031 128.535156 277.964844 128.53125 277.96875 128.527344 " stroke-width="1" class="fil1" />
    <path style="fill-rule:nonzero;fill-opacity:1;" d="M 334.070313 214.027344 C 332.378906 209.828125 328.652344 205.929688 321.308594 202.574219 C 310.882813 212.640625 297.621094 221.472656 280.21875 228.511719 C 270.84375 232.277344 262.496094 234.722656 254.539063 235.851563 C 247.355469 262.375 237.277344 283.296875 222.308594 294.75 C 176.515625 229.828125 112.777344 204.257813 38.976563 200.761719 C 43.328125 187.382813 60.8125 175.457031 77.226563 163.574219 C 78.917969 162.351563 84.113281 159.425781 85.691406 158.296875 C 64.339844 157.4375 44.648438 162.046875 29.898438 144.871094 C 43.722656 144.945313 47.890625 142.601563 64.589844 137.640625 C 43.464844 132.894531 26.917969 126.90625 12.976563 111.414063 C 26.679688 114.84375 40.105469 116.070313 52.507813 109.449219 C 28.101563 104.804688 20.667969 91.589844 10.957031 81.730469 C 26.921875 88.054688 47.011719 93.214844 54.765625 87.417969 C 36.136719 80.027344 20.449219 72.601563 19.375 54.636719 C 42.695313 60.949219 59.613281 64.375 93.183594 64.945313 C 115.425781 65.148438 137.648438 63.539063 166.496094 63.175781 C 199.433594 63.703125 220.007813 64.695313 245.703125 69.652344 C 267.257813 75.136719 279.886719 89.136719 284.707031 109.714844 C 286.085938 109.296875 287.414063 108.707031 288.675781 107.820313 C 287.65625 111.195313 286.597656 114.25 285.472656 116.984375 C 285.613281 116.640625 285.761719 116.308594 285.902344 115.953125 C 286.003906 116.632813 286.097656 117.308594 286.183594 118 C 297.421875 123.792969 306.8125 130.945313 314.234375 139.558594 C 336.25 163.714844 341.050781 188.617188 334.070313 214.027344 M 319.398438 134.863281 C 312.632813 127.007813 304.058594 120.0625 293.9375 114.273438 C 294.414063 112.878906 294.886719 111.40625 295.359375 109.835938 C 296.222656 106.992188 295.183594 103.914063 292.773438 102.171875 C 291.765625 101.441406 290.609375 101.011719 289.425781 100.886719 C 282.652344 81.265625 268.261719 68.199219 247.433594 62.898438 C 247.300781 62.863281 247.171875 62.835938 247.035156 62.808594 C 221.511719 57.882813 200.769531 56.753906 166.621094 56.207031 C 153.363281 56.367188 141.859375 56.78125 130.738281 57.175781 C 119.019531 57.597656 107.953125 57.992188 97.148438 57.992188 C 95.851563 57.992188 94.558594 57.988281 93.261719 57.976563 C 61.441406 57.433594 45.308594 54.429688 21.210938 47.910156 C 20.609375 47.746094 20 47.667969 19.390625 47.667969 C 17.804688 47.667969 16.25 48.207031 14.992188 49.230469 C 13.25 50.648438 12.300781 52.8125 12.433594 55.054688 C 13.070313 65.75 17.964844 73.40625 24.632813 79.175781 C 21.089844 78.082031 17.363281 76.765625 13.539063 75.25 C 12.699219 74.917969 11.832031 74.757813 10.972656 74.757813 C 8.6875 74.757813 6.480469 75.882813 5.160156 77.878906 C 3.339844 80.628906 3.691406 84.273438 6.003906 86.621094 C 7.59375 88.234375 9.148438 89.980469 10.792969 91.828125 C 15.144531 96.710938 20.074219 102.246094 27.257813 106.964844 C 23.519531 106.59375 19.410156 105.835938 14.683594 104.652344 C 14.121094 104.511719 13.550781 104.441406 12.992188 104.441406 C 10.585938 104.441406 8.300781 105.691406 7.019531 107.820313 C 5.4375 110.445313 5.757813 113.796875 7.808594 116.078125 C 16.996094 126.285156 27.328125 132.765625 39.128906 137.410156 C 36.625 137.746094 33.925781 137.902344 30.542969 137.902344 L 29.910156 137.902344 C 27.195313 137.902344 24.726563 139.476563 23.585938 141.945313 C 22.4375 144.421875 22.84375 147.339844 24.625 149.414063 C 35.964844 162.617188 49.695313 164.878906 63.132813 165.1875 C 49.339844 175.332031 36.460938 186.003906 32.363281 198.609375 C 31.691406 200.675781 32.019531 202.9375 33.257813 204.726563 C 34.492188 206.511719 36.488281 207.625 38.660156 207.726563 C 117.84375 211.472656 176.058594 241.253906 216.628906 298.769531 C 217.71875 300.316406 219.394531 301.355469 221.269531 301.640625 C 221.621094 301.695313 221.972656 301.71875 222.324219 301.71875 C 223.84375 301.71875 225.335938 301.222656 226.558594 300.285156 C 240.917969 289.296875 251.902344 270.199219 260.074219 241.984375 C 267.0625 240.613281 274.554688 238.304688 282.832031 234.980469 C 298.371094 228.695313 311.367188 220.84375 322.421875 211.054688 C 325.089844 212.761719 326.804688 214.605469 327.621094 216.628906 C 328.6875 219.28125 331.253906 220.996094 334.082031 220.996094 C 334.214844 220.996094 334.351563 220.992188 334.484375 220.984375 C 337.46875 220.8125 340.011719 218.753906 340.804688 215.871094 C 348.863281 186.542969 341.660156 159.289063 319.398438 134.863281 " stroke-width="1" class="fil1" />
    <path style="fill-rule:nonzero;fill-opacity:1;" d="M 248.765625 135.621094 C 249.640625 142.386719 255.457031 147.148438 261.710938 146.21875 C 264.933594 145.738281 267.640625 143.832031 269.410156 141.179688 C 268.667969 144.15625 267.480469 146.953125 265.585938 149.355469 C 262.707031 152.414063 258.921875 151.128906 255.429688 150.089844 C 250.410156 148.351563 246.152344 145.210938 242.214844 141.488281 C 240.058594 138.59375 238.300781 135.523438 236.828125 132.179688 C 234.816406 127.234375 233.679688 122.183594 233.414063 116.832031 L 233.414063 116.828125 C 233.414063 116.816406 233.410156 116.808594 233.410156 116.796875 C 233.410156 116.773438 233.40625 116.753906 233.40625 116.730469 C 233.859375 116.726563 234.296875 116.789063 234.746094 116.808594 C 234.746094 116.808594 234.75 116.808594 234.753906 116.808594 C 234.890625 116.8125 235.023438 116.824219 235.160156 116.832031 C 235.433594 116.847656 235.714844 116.851563 235.988281 116.878906 L 235.992188 116.878906 C 236.125 116.890625 236.269531 116.886719 236.40625 116.902344 C 237.601563 117.039063 238.773438 117.253906 239.898438 117.597656 C 240.75 118.132813 241.925781 118.828125 243.359375 119.648438 C 245 120.589844 247.015625 121.714844 249.417969 123.03125 C 250.375 123.554688 251.394531 124.109375 252.472656 124.695313 C 249.738281 127.359375 248.222656 131.394531 248.765625 135.621094 " stroke-width="1" class="fil1" />
    <path style="fill-rule:nonzero;fill-opacity:1;" d="M 207.03125 213.199219 C 207.039063 213.203125 207.042969 213.210938 207.050781 213.214844 C 207.585938 213.707031 208.132813 214.1875 208.691406 214.664063 C 208.125 214.183594 207.570313 213.695313 207.03125 213.199219 " stroke-width="1" class="fil2" />
    <path style="fill-rule:nonzero;fill-opacity:1;" d="M 324.628906 192.976563 C 319.382813 190.457031 319.4375 190.453125 313.398438 189.070313 C 299.453125 185.878906 285.566406 183.898438 271.714844 181.144531 C 250.796875 174.992188 238.113281 163.625 222.917969 163.617188 C 220.007813 163.652344 217.476563 163.921875 215.292969 164.40625 C 220.746094 161.6875 227.953125 160.023438 236.921875 159.410156 L 236.726563 156.472656 C 221.796875 157.492188 211.355469 161.414063 205.402344 168.222656 C 199.382813 175.117188 198.023438 184.820313 201.324219 197.328125 L 204.15625 196.585938 C 202.191406 189.136719 201.980469 182.824219 203.523438 177.628906 C 203.359375 181.871094 205.066406 185.828125 209.867188 189.324219 C 219.386719 191.195313 228.457031 189.597656 237.746094 189.730469 C 246.464844 188.734375 254.460938 188.46875 264.582031 189.285156 C 281.242188 191.464844 296.882813 194.238281 309.6875 198.621094 C 309.929688 198.703125 310.273438 198.820313 310.554688 198.921875 C 296.066406 211.21875 278.386719 219.738281 260.550781 224.273438 C 256.964844 225.09375 253.4375 225.707031 249.792969 226.078125 C 248.097656 226.203125 246.410156 226.289063 244.699219 226.316406 C 244.429688 226.3125 244.152344 226.277344 243.882813 226.269531 C 243.808594 226.261719 243.734375 226.253906 243.660156 226.253906 C 241.925781 226.210938 240.1875 226.070313 238.453125 225.886719 C 237.351563 225.761719 236.25 225.597656 235.148438 225.425781 C 234.109375 225.269531 233.066406 225.148438 232.03125 224.945313 C 226.9375 223.941406 221.945313 222.382813 217.214844 220.207031 C 216.996094 220.109375 216.765625 220.039063 216.546875 219.9375 C 216.457031 219.894531 216.363281 219.867188 216.277344 219.824219 L 211.5 216.929688 C 209.890625 215.730469 208.441406 214.496094 207.050781 213.214844 L 207.023438 213.191406 C 207.023438 213.191406 207.027344 213.195313 207.03125 213.199219 C 206.476563 212.6875 205.960938 212.136719 205.429688 211.601563 C 205.429688 211.605469 205.433594 211.609375 205.433594 211.609375 C 204.972656 211.144531 204.484375 210.703125 204.039063 210.21875 C 204.484375 210.699219 204.96875 211.140625 205.429688 211.601563 C 204.476563 210.648438 203.535156 209.679688 202.644531 208.628906 C 202.417969 208.367188 202.1875 208.121094 201.960938 207.851563 C 201.226563 206.957031 200.496094 206.046875 199.777344 205.054688 L 198.367188 202.714844 L 196.933594 200.328125 C 196.347656 199.125 195.824219 197.957031 195.351563 196.792969 C 195.234375 196.515625 195.144531 196.230469 195.035156 195.953125 C 195.007813 195.886719 194.988281 195.820313 194.964844 195.753906 C 194.648438 194.9375 194.34375 194.117188 194.078125 193.292969 C 193.945313 192.878906 193.839844 192.449219 193.71875 192.03125 C 193.492188 191.257813 193.277344 190.472656 193.09375 189.671875 C 193.132813 189.839844 193.183594 190 193.222656 190.164063 C 193.183594 189.996094 193.132813 189.839844 193.09375 189.671875 C 193.023438 189.371094 192.964844 189.0625 192.90625 188.753906 C 192.875 188.597656 192.84375 188.449219 192.8125 188.292969 C 192.609375 187.289063 192.414063 186.285156 192.265625 185.207031 C 192.089844 182.597656 192.089844 180.246094 192.285156 177.640625 C 192.484375 176.292969 192.769531 175.089844 193.0625 173.878906 C 193.074219 173.828125 193.082031 173.769531 193.09375 173.71875 C 193.289063 172.921875 193.535156 172.074219 193.78125 171.289063 C 194.128906 170.175781 194.460938 169.074219 194.933594 167.898438 C 195.921875 165.914063 196.984375 164.171875 198.15625 162.417969 C 198.496094 161.898438 198.816406 161.382813 199.195313 160.855469 L 200.097656 159.867188 L 203.007813 156.683594 L 203.335938 156.324219 C 203.371094 156.292969 203.410156 156.261719 203.445313 156.230469 C 204.238281 155.539063 205.058594 154.875 205.871094 154.210938 C 206.523438 153.675781 207.1875 153.175781 207.855469 152.675781 C 207.511719 152.933594 207.148438 153.164063 206.808594 153.433594 C 207.148438 153.160156 207.515625 152.929688 207.863281 152.667969 L 207.855469 152.675781 C 208.382813 152.28125 208.90625 151.890625 209.445313 151.527344 L 209.441406 151.53125 C 210.667969 150.707031 211.933594 149.953125 213.289063 149.375 C 214.214844 149.011719 215.121094 148.742188 216.035156 148.449219 C 215.121094 148.746094 214.214844 149.011719 213.289063 149.375 C 211.9375 149.953125 210.675781 150.707031 209.445313 151.527344 C 210.675781 150.710938 211.9375 149.957031 213.289063 149.378906 C 214.21875 149.011719 215.128906 148.742188 216.046875 148.445313 C 217.15625 148.085938 218.261719 147.792969 219.363281 147.535156 C 219.6875 147.460938 220.007813 147.398438 220.332031 147.332031 C 221.136719 147.167969 221.941406 147.035156 222.75 146.925781 C 223.164063 146.871094 223.578125 146.816406 223.992188 146.777344 C 224.777344 146.699219 225.570313 146.660156 226.367188 146.640625 C 226.757813 146.628906 227.148438 146.605469 227.542969 146.609375 C 228.683594 146.617188 229.835938 146.671875 231.015625 146.800781 C 231.058594 146.804688 231.097656 146.804688 231.144531 146.808594 C 231.324219 146.835938 231.496094 146.878906 231.679688 146.910156 C 232.617188 147.0625 233.550781 147.226563 234.457031 147.433594 L 234.464844 147.4375 C 234.753906 147.832031 235.046875 148.222656 235.347656 148.617188 C 237.367188 150.574219 239.429688 152.261719 241.507813 153.816406 C 245.53125 156.824219 249.660156 159.105469 253.949219 160.289063 C 263.78125 163.378906 270.90625 160.6875 275.3125 152.207031 C 276.351563 150.300781 277.175781 148.375 277.820313 146.425781 C 278.191406 147.058594 278.601563 147.625 279.042969 148.128906 C 279.046875 148.136719 279.054688 148.140625 279.058594 148.144531 C 279.496094 148.644531 279.960938 149.082031 280.449219 149.457031 C 281.675781 150.40625 283.050781 150.960938 284.429688 151.101563 C 285.839844 151.246094 287.257813 150.949219 288.527344 150.191406 C 289.753906 149.460938 290.832031 148.300781 291.628906 146.699219 C 291.894531 146.164063 292.128906 145.578125 292.328125 144.945313 L 291.519531 144.695313 L 289.53125 144.078125 C 288.96875 145.871094 288.066406 147.058594 287.019531 147.683594 C 286.503906 147.992188 285.9375 148.117188 285.359375 148.15625 C 285.144531 148.167969 284.933594 148.210938 284.714844 148.1875 C 284.347656 148.152344 283.980469 148.042969 283.609375 147.902344 C 283.53125 147.871094 283.453125 147.847656 283.378906 147.8125 C 282.988281 147.644531 282.605469 147.425781 282.238281 147.144531 C 280.832031 146.0625 279.648438 144.199219 279.074219 141.617188 C 280.050781 136.636719 280.109375 131.589844 279.953125 126.609375 C 280.039063 126.507813 280.128906 126.40625 280.21875 126.300781 C 290.359375 131.261719 299.667969 137.839844 307.375 146.632813 C 311.96875 151.804688 315.957031 157.039063 319.488281 163.121094 C 322.265625 168.253906 324.335938 173.25 325.855469 178.960938 C 327.050781 184.132813 327.601563 189.042969 327.527344 194.363281 Z M 246.863281 226.25 C 246.148438 226.285156 245.425781 226.304688 244.699219 226.320313 C 245.429688 226.304688 246.144531 226.277344 246.863281 226.25 Z M 235.183594 225.433594 C 236.265625 225.597656 237.347656 225.769531 238.429688 225.886719 C 237.34375 225.773438 236.265625 225.597656 235.183594 225.433594 M 219.84375 98.757813 C 219.855469 98.75 219.863281 98.742188 219.875 98.734375 C 219.867188 98.738281 219.863281 98.742188 219.855469 98.75 C 219.851563 98.75 219.847656 98.753906 219.84375 98.757813 M 248.765625 135.621094 C 249.640625 142.386719 255.457031 147.148438 261.714844 146.21875 C 264.933594 145.738281 267.640625 143.828125 269.40625 141.179688 C 268.667969 144.15625 267.480469 146.953125 265.585938 149.355469 C 262.707031 152.414063 258.921875 151.128906 255.433594 150.089844 C 250.40625 148.351563 246.152344 145.210938 242.214844 141.488281 C 240.058594 138.59375 238.304688 135.523438 236.828125 132.179688 C 234.816406 127.234375 233.679688 122.183594 233.414063 116.828125 C 233.414063 116.816406 233.410156 116.808594 233.410156 116.796875 C 233.410156 116.773438 233.40625 116.753906 233.40625 116.730469 C 233.859375 116.726563 234.296875 116.789063 234.742188 116.808594 C 234.746094 116.808594 234.75 116.808594 234.753906 116.808594 C 234.890625 116.8125 235.023438 116.824219 235.15625 116.832031 C 235.433594 116.847656 235.714844 116.851563 235.988281 116.878906 C 236.125 116.890625 236.269531 116.886719 236.40625 116.902344 C 237.601563 117.039063 238.773438 117.253906 239.898438 117.597656 C 240.75 118.132813 241.925781 118.828125 243.359375 119.648438 C 245 120.589844 247.015625 121.714844 249.417969 123.03125 C 250.375 123.554688 251.394531 124.109375 252.472656 124.695313 C 249.738281 127.359375 248.222656 131.394531 248.765625 135.621094 M 177.53125 234.925781 C 176.410156 234.09375 175.316406 233.246094 174.183594 232.425781 C 168.5 228.589844 162.816406 225.023438 156.9375 221.589844 C 150.984375 218.355469 145.042969 215.367188 138.929688 212.523438 C 132.722656 209.859375 126.542969 207.425781 120.21875 205.140625 L 107.378906 201.105469 C 90.757813 196.617188 74.195313 193.46875 57.132813 191.808594 C 61.253906 187.839844 65.832031 184.355469 70.347656 180.960938 C 74.332031 177.996094 78.367188 175.101563 82.398438 172.195313 C 84.800781 170.5625 87.355469 169.15625 89.824219 167.613281 L 117.597656 149.101563 C 102.988281 148.613281 88.375 147.792969 73.765625 147.945313 C 71.042969 147.980469 68.320313 148.015625 65.609375 147.988281 L 104.683594 136.324219 L 62.722656 126.714844 C 57.65625 125.472656 52.648438 124.101563 47.691406 122.355469 C 50.316406 121.601563 52.820313 120.5625 55.292969 119.390625 L 82.902344 105.269531 L 53.242188 99.160156 C 55.175781 98.644531 56.882813 97.851563 58.648438 96.90625 L 76.28125 85.085938 L 54.652344 76.425781 C 50.335938 74.648438 46.039063 72.796875 41.914063 70.511719 C 63 74.621094 84.515625 75.445313 105.898438 75.148438 C 129.019531 74.734375 152.148438 73.140625 175.289063 73.601563 C 187.773438 73.875 200.242188 74.300781 212.707031 75.359375 C 222.445313 76.246094 232.078125 77.558594 241.714844 79.3125 C 247.117188 80.339844 252.113281 82.3125 256.960938 85.082031 C 261.636719 88.046875 265.21875 91.300781 268.570313 95.917969 L 270.464844 98.941406 C 272.332031 102.402344 273.757813 106.011719 274.824219 109.730469 C 274.789063 109.722656 274.75 109.714844 274.714844 109.707031 C 274.589844 109.679688 274.460938 109.660156 274.332031 109.628906 C 273.980469 109.542969 273.621094 109.445313 273.265625 109.347656 C 273.164063 109.320313 273.0625 109.289063 272.960938 109.257813 C 272.769531 109.203125 272.578125 109.148438 272.386719 109.089844 C 272.183594 109.03125 271.980469 108.976563 271.777344 108.910156 C 271.414063 108.796875 271.054688 108.683594 270.6875 108.558594 C 270.535156 108.507813 270.382813 108.449219 270.230469 108.394531 C 269.996094 108.3125 269.761719 108.226563 269.527344 108.140625 C 269.390625 108.089844 269.253906 108.042969 269.113281 107.992188 C 268.769531 107.863281 268.429688 107.742188 268.082031 107.605469 C 267.867188 107.523438 267.644531 107.425781 267.425781 107.335938 C 267.273438 107.277344 267.121094 107.210938 266.972656 107.148438 C 266.574219 106.988281 266.183594 106.832031 265.785156 106.664063 C 265.277344 106.445313 264.765625 106.214844 264.253906 105.988281 C 263.828125 105.800781 263.402344 105.613281 262.976563 105.417969 C 262.410156 105.160156 261.839844 104.894531 261.269531 104.628906 C 260.992188 104.496094 260.714844 104.367188 260.433594 104.238281 C 257.214844 102.714844 253.949219 101.109375 250.675781 99.644531 C 250.65625 99.636719 250.636719 99.628906 250.613281 99.617188 C 249.722656 99.21875 248.828125 98.835938 247.9375 98.464844 C 247.71875 98.371094 247.496094 98.285156 247.277344 98.195313 C 246.554688 97.902344 245.832031 97.621094 245.113281 97.351563 C 244.859375 97.257813 244.609375 97.164063 244.359375 97.074219 C 243.625 96.808594 242.890625 96.5625 242.15625 96.332031 C 242.023438 96.289063 241.890625 96.238281 241.757813 96.199219 C 241.6875 96.175781 241.609375 96.15625 241.539063 96.132813 C 241.363281 96.082031 241.191406 96.039063 241.019531 95.988281 C 240.316406 95.785156 239.609375 95.589844 238.90625 95.425781 C 238.933594 95.429688 238.953125 95.433594 238.980469 95.4375 C 238.953125 95.433594 238.933594 95.429688 238.90625 95.421875 C 238.667969 95.367188 238.433594 95.328125 238.195313 95.277344 C 238.164063 95.273438 238.136719 95.265625 238.105469 95.257813 C 237.425781 95.113281 236.746094 94.980469 236.074219 94.878906 C 236.179688 94.894531 236.28125 94.898438 236.386719 94.914063 C 236.257813 94.894531 236.125 94.882813 235.996094 94.863281 C 235.78125 94.832031 235.570313 94.816406 235.355469 94.789063 C 234.859375 94.726563 234.359375 94.65625 233.863281 94.621094 C 234.285156 94.648438 234.714844 94.71875 235.136719 94.769531 C 234.527344 94.695313 233.921875 94.632813 233.316406 94.605469 C 233.304688 94.605469 233.289063 94.601563 233.277344 94.601563 C 233.015625 94.585938 232.75 94.585938 232.488281 94.582031 C 232.101563 94.574219 231.714844 94.5625 231.332031 94.574219 C 231.636719 94.566406 231.945313 94.585938 232.25 94.585938 C 231.703125 94.582031 231.160156 94.589844 230.621094 94.625 C 230.589844 94.628906 230.554688 94.625 230.523438 94.628906 C 230.28125 94.644531 230.042969 94.664063 229.808594 94.6875 C 229.613281 94.707031 229.417969 94.710938 229.222656 94.734375 L 229.214844 94.292969 C 193.871094 104.28125 156.722656 100.34375 118.847656 90.734375 C 134.042969 104.222656 151.019531 115.089844 171.421875 120.898438 C 171.070313 120.796875 170.699219 120.726563 170.347656 120.621094 C 160.03125 124.269531 149.898438 129.28125 139.972656 135.945313 C 155.675781 137.785156 170.125 140.445313 182.023438 144.761719 C 167.339844 144.808594 153.097656 148.351563 139.625 157.832031 C 158.941406 159.824219 176.882813 163.902344 185.21875 182.558594 L 185.753906 183.03125 C 185.761719 182.605469 185.78125 182.179688 185.792969 181.746094 C 184.875 207.347656 193.183594 218.253906 177.53125 234.925781 M 277.976563 128.523438 L 277.972656 128.527344 C 277.964844 128.53125 277.957031 128.535156 277.953125 128.539063 C 277.960938 128.535156 277.96875 128.53125 277.976563 128.523438 M 314.234375 139.558594 C 306.8125 130.945313 297.421875 123.792969 286.183594 117.996094 C 286.097656 117.3125 286.003906 116.632813 285.902344 115.953125 C 285.761719 116.3125 285.613281 116.640625 285.472656 116.984375 C 286.601563 114.25 287.65625 111.195313 288.675781 107.820313 C 287.414063 108.703125 286.082031 109.296875 284.707031 109.714844 C 279.890625 89.136719 267.257813 75.136719 245.699219 69.652344 C 220.007813 64.695313 199.433594 63.703125 166.496094 63.175781 C 137.648438 63.539063 115.425781 65.148438 93.183594 64.945313 C 59.613281 64.371094 42.695313 60.949219 19.375 54.636719 C 20.449219 72.601563 36.136719 80.027344 54.765625 87.417969 C 47.011719 93.214844 26.921875 88.054688 10.957031 81.730469 C 20.667969 91.589844 28.101563 104.804688 52.507813 109.449219 C 40.105469 116.070313 26.679688 114.84375 12.976563 111.414063 C 26.917969 126.90625 43.464844 132.894531 64.589844 137.640625 C 47.890625 142.601563 43.722656 144.945313 29.898438 144.871094 C 44.648438 162.046875 64.339844 157.4375 85.691406 158.296875 C 84.113281 159.425781 78.917969 162.351563 77.226563 163.574219 C 60.8125 175.457031 43.324219 187.382813 38.976563 200.761719 C 112.777344 204.257813 176.515625 229.828125 222.308594 294.75 C 237.277344 283.296875 247.355469 262.375 254.539063 235.851563 C 262.496094 234.722656 270.847656 232.277344 280.21875 228.511719 C 297.621094 221.472656 310.882813 212.640625 321.3125 202.574219 C 328.652344 205.929688 332.378906 209.828125 334.070313 214.027344 C 341.050781 188.617188 336.25 163.714844 314.234375 139.558594 " stroke-width="1" class="fil2" />
    <path style="fill-rule:nonzero;fill-opacity:1;" d="M 237.289063 95.089844 C 237.5625 95.140625 237.832031 95.203125 238.101563 95.257813 C 238.113281 95.261719 238.125 95.261719 238.132813 95.265625 C 237.851563 95.203125 237.570313 95.144531 237.289063 95.089844 " stroke-width="1" class="fil2" />
    <path style="fill-rule:nonzero;fill-opacity:1;" d="M 219.84375 98.757813 C 219.847656 98.753906 219.851563 98.75 219.855469 98.75 C 219.863281 98.742188 219.867188 98.738281 219.875 98.734375 C 219.863281 98.742188 219.855469 98.75 219.84375 98.757813 " stroke-width="1" class="fil3" />
    <path style="fill-rule:nonzero;fill-opacity:1;" d="M 197.054688 164.15625 C 197.394531 163.609375 197.734375 163.058594 198.09375 162.515625 C 197.15625 163.921875 196.289063 165.332031 195.472656 166.863281 C 195.980469 165.921875 196.511719 165.039063 197.054688 164.15625 " stroke-width="1" class="fil3" />
    <path style="fill-rule:nonzero;fill-opacity:1;" d="M 54.652344 76.425781 L 76.28125 85.089844 L 58.648438 96.90625 C 56.882813 97.851563 55.175781 98.640625 53.242188 99.160156 L 82.90625 105.269531 L 55.292969 119.390625 C 52.820313 120.5625 50.316406 121.601563 47.691406 122.355469 C 52.648438 124.101563 57.65625 125.472656 62.722656 126.714844 L 104.683594 136.324219 L 65.609375 147.988281 C 68.324219 148.015625 71.046875 147.976563 73.761719 147.945313 C 88.375 147.792969 102.988281 148.613281 117.597656 149.101563 L 89.824219 167.609375 C 87.355469 169.15625 84.800781 170.5625 82.398438 172.191406 C 78.367188 175.101563 74.332031 177.996094 70.347656 180.960938 C 65.832031 184.351563 61.253906 187.839844 57.132813 191.808594 C 74.195313 193.46875 90.757813 196.617188 107.378906 201.105469 L 120.21875 205.140625 C 126.542969 207.425781 132.722656 209.859375 138.929688 212.523438 C 145.042969 215.367188 150.984375 218.355469 156.9375 221.589844 C 162.816406 225.023438 168.5 228.59375 174.183594 232.425781 C 175.316406 233.246094 176.410156 234.09375 177.53125 234.925781 C 193.183594 218.253906 184.875 207.347656 185.796875 181.746094 C 185.78125 182.179688 185.761719 182.605469 185.753906 183.03125 L 185.21875 182.558594 C 176.882813 163.902344 158.941406 159.824219 139.625 157.832031 C 153.097656 148.351563 167.339844 144.808594 182.027344 144.761719 C 170.125 140.445313 155.675781 137.785156 139.972656 135.941406 C 149.898438 129.28125 160.03125 124.269531 170.347656 120.621094 C 170.699219 120.726563 171.070313 120.796875 171.421875 120.898438 C 151.019531 115.089844 134.042969 104.222656 118.847656 90.734375 C 156.722656 100.34375 193.871094 104.28125 229.214844 94.292969 L 229.222656 94.734375 C 229.417969 94.710938 229.613281 94.707031 229.808594 94.6875 C 230.046875 94.664063 230.285156 94.644531 230.519531 94.628906 C 230.554688 94.628906 230.589844 94.628906 230.625 94.625 C 230.859375 94.609375 231.09375 94.582031 231.332031 94.574219 C 231.714844 94.5625 232.101563 94.574219 232.488281 94.582031 C 232.75 94.585938 233.011719 94.585938 233.277344 94.601563 C 233.292969 94.601563 233.304688 94.601563 233.316406 94.605469 C 233.5 94.613281 233.679688 94.605469 233.863281 94.621094 C 234.359375 94.65625 234.859375 94.726563 235.355469 94.789063 C 235.570313 94.8125 235.78125 94.832031 235.996094 94.863281 C 236.125 94.882813 236.253906 94.894531 236.386719 94.914063 C 236.6875 94.964844 236.988281 95.035156 237.289063 95.089844 C 237.851563 95.199219 238.414063 95.304688 238.976563 95.4375 C 239.101563 95.46875 239.226563 95.503906 239.347656 95.535156 C 239.902344 95.675781 240.460938 95.824219 241.015625 95.988281 C 241.191406 96.035156 241.363281 96.082031 241.539063 96.132813 C 241.613281 96.15625 241.683594 96.175781 241.757813 96.199219 C 241.890625 96.238281 242.023438 96.289063 242.15625 96.332031 C 242.398438 96.40625 242.636719 96.484375 242.878906 96.5625 C 243.324219 96.710938 243.765625 96.859375 244.210938 97.019531 C 244.257813 97.035156 244.308594 97.054688 244.355469 97.074219 C 244.359375 97.074219 244.359375 97.074219 244.359375 97.074219 C 244.609375 97.164063 244.863281 97.257813 245.113281 97.351563 C 245.113281 97.351563 245.117188 97.351563 245.121094 97.351563 C 245.277344 97.410156 245.429688 97.464844 245.589844 97.527344 C 245.992188 97.679688 246.394531 97.839844 246.796875 98 C 246.957031 98.0625 247.117188 98.132813 247.28125 98.199219 C 247.5 98.285156 247.714844 98.371094 247.933594 98.464844 C 247.9375 98.464844 247.941406 98.464844 247.941406 98.46875 C 248.058594 98.511719 248.171875 98.558594 248.289063 98.609375 C 248.613281 98.742188 248.933594 98.882813 249.253906 99.023438 C 249.398438 99.085938 249.542969 99.15625 249.6875 99.21875 C 249.996094 99.351563 250.304688 99.480469 250.613281 99.617188 C 250.632813 99.628906 250.65625 99.636719 250.675781 99.644531 C 253.949219 101.109375 257.214844 102.714844 260.433594 104.234375 C 260.714844 104.367188 260.992188 104.496094 261.269531 104.628906 C 261.839844 104.894531 262.410156 105.160156 262.976563 105.417969 C 263.40625 105.613281 263.828125 105.800781 264.253906 105.988281 C 264.765625 106.21875 265.277344 106.445313 265.785156 106.664063 C 266.183594 106.832031 266.574219 106.988281 266.96875 107.148438 C 267.121094 107.210938 267.273438 107.273438 267.425781 107.335938 C 267.644531 107.425781 267.867188 107.519531 268.085938 107.605469 C 268.429688 107.742188 268.769531 107.863281 269.117188 107.992188 C 269.253906 108.042969 269.390625 108.089844 269.527344 108.140625 C 269.761719 108.226563 269.996094 108.3125 270.230469 108.394531 C 270.382813 108.449219 270.535156 108.507813 270.6875 108.558594 C 271.054688 108.683594 271.417969 108.796875 271.777344 108.910156 C 271.894531 108.949219 272.011719 108.976563 272.128906 109.015625 C 272.214844 109.039063 272.300781 109.0625 272.386719 109.089844 C 272.578125 109.148438 272.769531 109.207031 272.960938 109.257813 C 273.058594 109.289063 273.164063 109.320313 273.261719 109.347656 C 273.621094 109.449219 273.976563 109.542969 274.335938 109.628906 C 274.460938 109.660156 274.589844 109.679688 274.714844 109.707031 C 274.753906 109.714844 274.789063 109.722656 274.824219 109.730469 C 273.753906 106.011719 272.332031 102.402344 270.464844 98.941406 L 268.570313 95.917969 C 265.21875 91.300781 261.636719 88.046875 256.960938 85.082031 C 252.117188 82.3125 247.121094 80.339844 241.714844 79.3125 C 232.078125 77.558594 222.445313 76.246094 212.710938 75.355469 C 200.242188 74.300781 187.773438 73.875 175.289063 73.601563 C 152.148438 73.140625 129.019531 74.734375 105.898438 75.148438 C 84.515625 75.445313 63 74.625 41.914063 70.511719 C 46.039063 72.796875 50.335938 74.644531 54.652344 76.425781 " stroke-width="1" class="fil3" />
    <path style="fill-rule:nonzero;fill-opacity:1;" d="M 196.09375 198.53125 C 196.167969 198.699219 196.25 198.867188 196.328125 199.035156 C 196.25 198.867188 196.167969 198.699219 196.09375 198.53125 " stroke-width="1" class="fil3" />
    <path style="fill-rule:nonzero;fill-opacity:1;" d="M 193.222656 190.164063 C 193.183594 190 193.128906 189.839844 193.09375 189.671875 C 193.277344 190.472656 193.492188 191.257813 193.714844 192.03125 C 193.539063 191.417969 193.375 190.796875 193.222656 190.164063 " stroke-width="1" class="fil3" />
    <path style="fill-rule:nonzero;fill-opacity:1;" d="M 195.191406 167.402344 C 195.105469 167.566406 195.015625 167.726563 194.929688 167.898438 C 194.460938 169.074219 194.128906 170.175781 193.78125 171.289063 C 194.128906 170.175781 194.460938 169.074219 194.933594 167.894531 C 195.019531 167.726563 195.105469 167.566406 195.191406 167.402344 " stroke-width="1" class="fil3" />
    <path style="fill-rule:nonzero;fill-opacity:1;" d="M 327.527344 194.363281 L 324.628906 192.976563 C 319.382813 190.457031 319.4375 190.453125 313.398438 189.070313 C 299.457031 185.878906 285.566406 183.898438 271.714844 181.144531 C 250.796875 174.992188 238.113281 163.625 222.917969 163.617188 C 220.007813 163.65625 217.476563 163.921875 215.292969 164.40625 C 220.746094 161.6875 227.953125 160.023438 236.921875 159.410156 L 236.726563 156.472656 C 221.796875 157.492188 211.355469 161.414063 205.402344 168.222656 C 199.382813 175.117188 198.023438 184.820313 201.324219 197.328125 L 204.160156 196.585938 C 202.191406 189.136719 201.976563 182.824219 203.519531 177.632813 C 203.359375 181.871094 205.066406 185.828125 209.871094 189.324219 C 219.386719 191.195313 228.457031 189.597656 237.746094 189.730469 C 246.464844 188.730469 254.460938 188.46875 264.582031 189.285156 C 281.246094 191.464844 296.882813 194.238281 309.6875 198.621094 C 309.929688 198.707031 310.273438 198.820313 310.550781 198.921875 C 296.066406 211.21875 278.386719 219.734375 260.550781 224.269531 C 256.964844 225.09375 253.4375 225.707031 249.796875 226.078125 C 248.097656 226.207031 246.410156 226.289063 244.703125 226.316406 C 241.027344 226.28125 237.335938 225.851563 233.671875 225.222656 C 233.125 225.128906 232.578125 225.050781 232.035156 224.941406 C 230.417969 224.625 228.832031 224.171875 227.246094 223.730469 C 226.746094 223.59375 226.234375 223.5 225.738281 223.351563 C 225.507813 223.28125 225.269531 223.230469 225.035156 223.15625 C 223.507813 222.683594 222.027344 222.074219 220.539063 221.492188 C 219.878906 221.230469 219.199219 221.039063 218.546875 220.757813 C 218.105469 220.5625 217.652344 220.410156 217.214844 220.210938 C 216.996094 220.109375 216.765625 220.039063 216.546875 219.933594 C 216.460938 219.894531 216.363281 219.867188 216.277344 219.824219 L 211.5 216.929688 C 207.902344 214.253906 204.960938 211.480469 202.191406 208.148438 C 201.375 207.167969 200.574219 206.148438 199.777344 205.054688 L 198.371094 202.71875 L 196.929688 200.328125 C 196.347656 199.125 195.828125 197.957031 195.351563 196.792969 C 195.234375 196.515625 195.140625 196.230469 195.035156 195.953125 C 195.007813 195.886719 194.988281 195.820313 194.964844 195.753906 C 194.648438 194.9375 194.34375 194.117188 194.078125 193.292969 C 193.996094 193.03125 193.921875 192.761719 193.847656 192.492188 C 193.808594 192.34375 193.765625 192.195313 193.722656 192.050781 C 193.71875 192.042969 193.71875 192.039063 193.714844 192.03125 C 193.539063 191.417969 193.375 190.796875 193.222656 190.164063 C 193.183594 190 193.132813 189.839844 193.09375 189.671875 C 192.988281 189.222656 192.902344 188.757813 192.8125 188.296875 C 192.609375 187.289063 192.414063 186.285156 192.265625 185.207031 C 192.089844 182.597656 192.089844 180.246094 192.285156 177.640625 C 192.488281 176.269531 192.777344 175.050781 193.074219 173.820313 C 193.152344 173.488281 193.199219 173.117188 193.289063 172.789063 C 193.421875 172.296875 193.628906 171.78125 193.78125 171.289063 C 194.128906 170.175781 194.460938 169.074219 194.933594 167.894531 C 195.691406 166.375 196.496094 165 197.34375 163.648438 C 197.925781 162.71875 198.519531 161.800781 199.195313 160.855469 L 200.097656 159.867188 L 203.007813 156.683594 L 203.335938 156.324219 C 203.371094 156.292969 203.410156 156.261719 203.445313 156.230469 C 204.019531 155.730469 204.597656 155.234375 205.183594 154.746094 C 207.695313 152.625 210.308594 150.648438 213.289063 149.378906 C 214.765625 148.792969 216.222656 148.296875 217.675781 147.894531 C 217.683594 147.890625 217.6875 147.890625 217.691406 147.886719 C 217.992188 147.804688 218.292969 147.769531 218.589844 147.695313 C 222.671875 146.667969 226.75 146.324219 231.140625 146.808594 C 231.324219 146.835938 231.496094 146.882813 231.679688 146.910156 C 232.621094 147.0625 233.546875 147.226563 234.457031 147.433594 L 234.464844 147.4375 C 234.753906 147.832031 235.046875 148.222656 235.347656 148.617188 C 237.371094 150.574219 239.429688 152.261719 241.507813 153.816406 C 245.53125 156.824219 249.660156 159.105469 253.949219 160.289063 C 263.78125 163.378906 270.90625 160.6875 275.308594 152.207031 C 276.351563 150.300781 277.171875 148.375 277.820313 146.425781 C 278.191406 147.058594 278.601563 147.625 279.042969 148.132813 C 279.046875 148.136719 279.054688 148.140625 279.058594 148.144531 C 279.496094 148.644531 279.960938 149.082031 280.449219 149.457031 C 281.675781 150.40625 283.050781 150.964844 284.425781 151.101563 C 285.839844 151.246094 287.257813 150.949219 288.527344 150.191406 C 289.753906 149.460938 290.832031 148.300781 291.628906 146.699219 C 291.894531 146.164063 292.128906 145.578125 292.328125 144.945313 L 291.519531 144.695313 L 289.53125 144.078125 C 288.96875 145.871094 288.066406 147.058594 287.019531 147.683594 C 286.503906 147.992188 285.933594 148.117188 285.359375 148.15625 C 285.144531 148.167969 284.933594 148.210938 284.714844 148.1875 C 284.347656 148.152344 283.976563 148.042969 283.609375 147.902344 C 283.53125 147.871094 283.457031 147.847656 283.378906 147.8125 C 282.992188 147.640625 282.605469 147.425781 282.238281 147.144531 C 280.832031 146.058594 279.644531 144.199219 279.074219 141.617188 C 280.050781 136.636719 280.109375 131.589844 279.953125 126.609375 C 280.042969 126.507813 280.128906 126.40625 280.21875 126.300781 C 290.359375 131.261719 299.667969 137.839844 307.375 146.632813 C 311.96875 151.804688 315.957031 157.042969 319.488281 163.121094 C 322.265625 168.253906 324.335938 173.25 325.855469 178.960938 C 327.046875 184.132813 327.601563 189.042969 327.527344 194.363281 " stroke-width="1" class="fil4" />
  </g>
</svg>