<?xml version="1.0" encoding="utf-8"?>
<svg xmlns="http://www.w3.org/2000/svg" xmlns:xlink="http://www.w3.org/1999/xlink" width="348pt" height="348pt" viewBox="0 0 348 348" version="1.1">
  <style type="text/css"><![CDATA[.fil0{fill:#FFFFFF}
.fil1{fill:#C6C6C6}
.fil2{fill:#6896C2}
.fil3{fill:#0E0E0E}
.fil4{fill:#E6E6E6}
.fil5{fill:#D10000}
.fil6{fill:#F4B716}
]]></style>
  <g id="surface1">
    <path style="fill-rule:nonzero;fill-opacity:1;" d="M 164.605469 300.828125 C 162.960938 303.238281 161.316406 305.648438 159.671875 308.058594 C 183.125 315.703125 204.386719 309.839844 218.1875 300.828125 C 202.058594 303.710938 181.617188 306.722656 164.605469 300.828125 M 165.921875 296.882813 C 185.027344 301.195313 203.578125 300.457031 221.8125 296.882813 C 230.082031 291.890625 236.328125 285.316406 240.21875 279.457031 C 216.660156 279.894531 192.117188 280.007813 168.550781 280.441406 C 169.101563 285.660156 168.421875 292.039063 165.921875 296.882813 M 155.074219 254.800781 C 159.621094 260.988281 163.890625 268.003906 167.5625 276.828125 C 192.222656 275.949219 216.878906 275.074219 241.539063 274.195313 C 244.050781 264.992188 244.488281 255.785156 243.507813 246.582031 C 221.945313 235.8125 191.535156 240.140625 155.074219 254.800781 M 243.507813 240.335938 C 245.699219 228.117188 242.191406 216.609375 230.355469 206.144531 C 184.425781 208.773438 153.851563 216.558594 137.71875 228.832031 C 144.4375 235.457031 149.761719 243.308594 153.355469 251.695313 C 187.84375 235.546875 217.78125 231.058594 243.507813 240.335938 M 170.191406 187.734375 C 150.84375 190.753906 134.425781 197.535156 121.210938 208.445313 C 125.484375 214.253906 129.757813 220.0625 134.035156 225.871094 C 149.574219 214.949219 168.347656 209.828125 188.277344 206.804688 C 180.5 204.828125 174.46875 198.472656 170.191406 187.734375 M 157.699219 162.089844 C 139.015625 166.363281 121.703125 172.828125 107.402344 184.117188 C 109.707031 191.789063 113.324219 198.582031 118.253906 204.5 C 133.933594 194.023438 150.566406 186.378906 168.882813 183.789063 C 165.15625 176.554688 161.421875 169.328125 157.699219 162.089844 M 106.085938 160.445313 C 103.785156 167.132813 103.679688 173.816406 105.761719 180.5 C 120.222656 169.101563 137.316406 161.652344 157.039063 158.144531 C 150.742188 136.375 107.011719 153.957031 106.085938 160.445313 M 107.070313 155.1875 C 112.113281 150.691406 120.449219 146.640625 128.113281 145.652344 C 123.324219 144.011719 117.894531 143.136719 116.605469 139.734375 C 112.332031 143.785156 109.59375 149.378906 107.070313 155.1875 M 196.824219 69.386719 C 199.339844 69.710938 201.425781 70.476563 203.070313 71.683594 C 211.621094 68.921875 220.167969 68.054688 228.710938 67.078125 C 216.742188 55.027344 200.140625 45.824219 176.773438 40.78125 C 175.785156 43.738281 177.445313 47.878906 179.347656 53.207031 C 187.839844 51.585938 200.640625 52.285156 196.824219 69.386719 M 116.28125 47.355469 C 105.980469 40.765625 93.382813 39.566406 80.445313 39.136719 C 101.375 35.738281 122.304688 35.191406 143.238281 38.808594 C 133.097656 40.886719 123.785156 43.523438 116.28125 47.355469 " stroke-width="1" class="fil1" />
    <path style="fill-rule:nonzero;fill-opacity:1;" d="M 322.261719 168.78125 C 315.402344 175.867188 306.308594 181.425781 295.96875 185.207031 C 294.492188 190.191406 292.800781 195.074219 290.835938 199.890625 C 288.25 206.328125 285.765625 212.9375 283.355469 219.328125 C 281.90625 223.183594 280.449219 227.039063 278.964844 230.886719 C 276.554688 237.066406 274.28125 242.570313 272.027344 247.710938 C 270.761719 250.496094 269.460938 253.265625 268.15625 255.949219 C 266.816406 258.597656 265.425781 261.230469 263.910156 264.003906 C 262.402344 266.625 260.863281 269.179688 259.195313 271.832031 C 257.507813 274.371094 255.894531 276.699219 254.257813 278.964844 C 252.835938 280.90625 251.324219 282.90625 249.644531 285.085938 C 248.042969 287.089844 246.386719 289.089844 244.71875 291.03125 C 242.960938 292.996094 241.222656 294.847656 239.398438 296.703125 L 235.59375 300.277344 L 231.542969 303.65625 L 227.230469 306.8125 L 224.953125 308.296875 L 222.613281 309.707031 L 220.191406 311.046875 L 217.6875 312.316406 L 215.105469 313.496094 L 212.429688 314.601563 L 209.667969 315.605469 L 206.820313 316.53125 L 203.867188 317.351563 L 200.835938 318.082031 L 197.6875 318.707031 L 194.449219 319.226563 L 191.101563 319.644531 L 187.644531 319.945313 L 184.078125 320.132813 C 180.835938 320.195313 176.742188 320.269531 172.546875 320.269531 C 171.824219 320.269531 171.09375 320.265625 170.367188 320.261719 C 168.574219 320.230469 166.753906 320.152344 164.792969 320.015625 L 161.152344 319.558594 L 157.519531 318.765625 C 142.949219 315.847656 134.550781 304.554688 126.425781 293.632813 C 125.125 291.882813 123.832031 290.148438 122.523438 288.460938 L 117.101563 281.003906 C 113.742188 276.199219 110.910156 272.183594 107.996094 268.179688 L 101.59375 259.769531 C 98.390625 255.71875 95.078125 251.625 91.75 247.609375 L 85.085938 239.746094 C 81.023438 235.039063 76.921875 230.363281 72.820313 225.6875 C 67.183594 219.253906 61.355469 212.609375 55.71875 205.984375 C 52.3125 201.914063 49.363281 198.316406 46.695313 194.980469 L 41.042969 187.628906 L 35.757813 180.21875 L 33.265625 176.476563 L 30.878906 172.710938 L 28.613281 168.910156 L 26.46875 165.085938 L 24.460938 161.214844 L 22.585938 157.304688 L 20.84375 153.316406 L 18.242188 146.203125 L 16.078125 139.171875 L 14.355469 132.230469 L 13.066406 125.386719 L 12.210938 118.652344 L 11.792969 112.042969 L 11.816406 105.570313 L 12.273438 99.253906 L 13.171875 93.089844 L 14.507813 87.121094 L 16.285156 81.339844 L 18.503906 75.773438 L 21.160156 70.433594 L 24.261719 65.339844 L 27.804688 60.503906 L 31.765625 55.945313 L 36.164063 51.679688 L 40.988281 47.726563 L 46.230469 44.09375 L 51.890625 40.792969 L 57.957031 37.84375 L 64.433594 35.25 L 71.324219 33.035156 L 78.613281 31.191406 L 86.300781 29.75 L 94.398438 28.714844 L 102.882813 28.09375 L 111.800781 27.894531 L 121.058594 28.136719 L 130.742188 28.835938 L 140.816406 30 L 150.503906 31.511719 C 151.429688 31.171875 152.347656 30.8125 153.265625 30.453125 C 154.5625 29.949219 155.855469 29.441406 157.171875 28.988281 L 159.960938 28.226563 L 161.476563 27.953125 L 163.035156 27.777344 L 164.660156 27.734375 L 166.34375 27.824219 L 168.097656 28.074219 L 169.898438 28.492188 L 171.761719 29.082031 L 174.222656 30.144531 L 175.136719 31.0625 C 175.644531 31.523438 176.152344 31.925781 176.710938 32.308594 C 177.246094 32.632813 177.785156 32.910156 178.390625 33.171875 C 178.941406 33.367188 179.53125 33.535156 180.210938 33.679688 C 180.863281 33.773438 181.519531 33.820313 182.234375 33.832031 C 182.910156 33.800781 183.652344 33.734375 184.539063 33.605469 C 186.867188 33.191406 189.210938 32.746094 191.558594 32.300781 C 192.882813 32.046875 194.207031 31.792969 195.535156 31.546875 C 199.171875 30.878906 203.988281 30.046875 208.964844 29.546875 C 210.632813 29.417969 212.1875 29.332031 213.722656 29.296875 C 215.308594 29.304688 216.75 29.371094 218.152344 29.5 L 220.875 29.972656 L 222.191406 30.339844 L 223.433594 30.816406 L 224.613281 31.40625 L 225.726563 32.128906 L 226.742188 33.003906 L 227.628906 34.03125 L 228.367188 35.195313 L 228.574219 35.683594 L 232.015625 35.917969 L 237.316406 36.542969 L 242.445313 37.414063 L 247.40625 38.542969 L 252.195313 39.917969 L 256.808594 41.5625 L 261.230469 43.460938 L 265.46875 45.621094 L 269.503906 48.046875 L 273.335938 50.738281 L 276.964844 53.695313 L 280.382813 56.910156 L 283.574219 60.390625 L 286.542969 64.128906 L 289.289063 68.132813 L 291.800781 72.394531 L 294.074219 76.917969 L 296.113281 81.695313 L 297.90625 86.734375 L 299.460938 92.015625 L 300.769531 97.5625 L 301.832031 103.363281 L 302.636719 109.421875 L 303.203125 115.738281 L 303.507813 122.320313 L 303.558594 129.152344 L 303.355469 136.253906 L 302.890625 143.621094 C 302.339844 153.265625 301.214844 162.199219 299.53125 170.710938 C 311.070313 160.199219 318 143.472656 320.207031 120.660156 L 321.3125 120.523438 C 323.820313 127.589844 324.238281 138.234375 322.558594 152.1875 C 327.503906 146.539063 332.21875 134.511719 333.957031 125.765625 L 335.078125 125.777344 C 337.972656 142.253906 333.539063 157.125 322.261719 168.78125 M 342.875 124.40625 C 342.214844 120.652344 338.976563 117.902344 335.164063 117.855469 L 334.042969 117.84375 C 334.011719 117.84375 333.980469 117.84375 333.949219 117.84375 C 332.214844 117.84375 330.585938 118.40625 329.265625 119.375 C 329.109375 118.863281 328.945313 118.367188 328.773438 117.875 C 327.640625 114.6875 324.625 112.605469 321.3125 112.605469 C 320.988281 112.605469 320.660156 112.625 320.332031 112.664063 L 319.230469 112.800781 C 315.546875 113.257813 312.675781 116.207031 312.320313 119.898438 C 312.085938 122.292969 311.796875 124.617188 311.457031 126.863281 L 311.421875 122.261719 C 311.421875 122.15625 311.417969 122.054688 311.414063 121.953125 L 311.109375 115.375 C 311.105469 115.257813 311.097656 115.144531 311.085938 115.03125 L 310.519531 108.714844 C 310.507813 108.601563 310.496094 108.492188 310.484375 108.378906 L 309.675781 102.320313 C 309.660156 102.191406 309.640625 102.0625 309.617188 101.933594 L 308.550781 96.132813 C 308.527344 96.003906 308.5 95.875 308.46875 95.746094 L 307.164063 90.199219 C 307.128906 90.058594 307.09375 89.921875 307.054688 89.78125 L 305.5 84.5 C 305.457031 84.355469 305.410156 84.210938 305.363281 84.070313 L 303.566406 79.035156 C 303.511719 78.886719 303.453125 78.738281 303.394531 78.59375 L 301.359375 73.816406 C 301.292969 73.660156 301.222656 73.511719 301.148438 73.359375 L 298.871094 68.835938 C 298.792969 68.679688 298.707031 68.523438 298.617188 68.371094 L 296.105469 64.109375 C 296.015625 63.957031 295.917969 63.804688 295.816406 63.65625 L 293.074219 59.652344 C 292.96875 59.5 292.855469 59.347656 292.742188 59.203125 L 289.765625 55.460938 C 289.652344 55.316406 289.53125 55.175781 289.40625 55.039063 L 286.21875 51.558594 C 286.085938 51.414063 285.949219 51.273438 285.804688 51.140625 L 282.386719 47.925781 C 282.25 47.796875 282.109375 47.671875 281.960938 47.554688 L 278.332031 44.597656 C 278.1875 44.476563 278.035156 44.363281 277.878906 44.253906 L 274.046875 41.566406 C 273.894531 41.457031 273.738281 41.355469 273.578125 41.261719 L 269.542969 38.832031 C 269.386719 38.738281 269.226563 38.648438 269.058594 38.566406 L 264.820313 36.40625 C 264.664063 36.324219 264.507813 36.25 264.347656 36.183594 L 259.925781 34.285156 C 259.773438 34.21875 259.617188 34.160156 259.460938 34.101563 L 254.851563 32.457031 C 254.691406 32.402344 254.535156 32.351563 254.375 32.304688 L 249.585938 30.929688 C 249.445313 30.890625 249.300781 30.855469 249.15625 30.820313 L 244.195313 29.691406 C 244.050781 29.660156 243.90625 29.628906 243.765625 29.605469 L 238.636719 28.734375 C 238.503906 28.710938 238.371094 28.691406 238.238281 28.675781 L 232.941406 28.050781 C 232.9375 28.050781 232.929688 28.050781 232.925781 28.046875 L 232.730469 27.824219 C 232.472656 27.527344 232.195313 27.25 231.898438 26.992188 L 230.878906 26.117188 C 230.613281 25.890625 230.335938 25.683594 230.042969 25.492188 L 228.933594 24.769531 C 228.675781 24.601563 228.410156 24.449219 228.136719 24.3125 L 226.957031 23.726563 C 226.730469 23.613281 226.5 23.511719 226.265625 23.421875 L 225.023438 22.945313 C 224.789063 22.855469 224.550781 22.777344 224.308594 22.707031 L 222.992188 22.34375 C 222.742188 22.273438 222.488281 22.214844 222.230469 22.171875 L 219.503906 21.695313 C 219.289063 21.65625 219.074219 21.628906 218.855469 21.609375 C 217.226563 21.464844 215.5625 21.386719 213.769531 21.375 C 211.847656 21.417969 210.160156 21.507813 208.347656 21.648438 C 202.890625 22.195313 197.875 23.0625 194.09375 23.757813 L 190.097656 24.511719 C 187.757813 24.957031 185.445313 25.398438 183.152344 25.804688 C 182.875 25.84375 182.492188 25.882813 182.117188 25.90625 C 181.933594 25.898438 181.75 25.886719 181.574219 25.867188 C 181.472656 25.84375 181.375 25.816406 181.28125 25.789063 C 181.183594 25.742188 181.089844 25.691406 180.992188 25.640625 C 180.851563 25.535156 180.710938 25.421875 180.574219 25.304688 L 179.832031 24.558594 C 179.117188 23.84375 178.277344 23.269531 177.347656 22.867188 L 174.890625 21.808594 C 174.648438 21.703125 174.402344 21.613281 174.152344 21.535156 L 172.289063 20.945313 C 172.089844 20.878906 171.886719 20.824219 171.683594 20.777344 L 169.878906 20.359375 C 169.660156 20.308594 169.441406 20.269531 169.21875 20.234375 L 167.46875 19.984375 C 167.234375 19.949219 166.996094 19.925781 166.761719 19.914063 L 165.078125 19.824219 C 164.9375 19.816406 164.796875 19.8125 164.65625 19.8125 C 164.582031 19.8125 164.511719 19.8125 164.441406 19.816406 L 162.8125 19.859375 C 162.589844 19.863281 162.363281 19.878906 162.140625 19.90625 L 160.582031 20.082031 C 160.40625 20.101563 160.226563 20.125 160.050781 20.160156 L 158.535156 20.433594 C 158.3125 20.476563 158.089844 20.527344 157.867188 20.585938 L 155.082031 21.347656 C 154.914063 21.394531 154.75 21.445313 154.585938 21.5 C 153.167969 21.988281 151.773438 22.53125 150.378906 23.074219 C 150.132813 23.171875 149.890625 23.269531 149.644531 23.363281 L 142.03125 22.171875 C 141.925781 22.15625 141.824219 22.144531 141.71875 22.128906 L 131.644531 20.96875 C 131.53125 20.953125 131.417969 20.945313 131.304688 20.9375 L 121.625 20.238281 C 121.503906 20.230469 121.382813 20.222656 121.261719 20.21875 L 112 19.976563 C 111.933594 19.976563 111.863281 19.976563 111.792969 19.976563 C 111.738281 19.976563 111.679688 19.976563 111.621094 19.976563 L 102.703125 20.171875 C 102.570313 20.175781 102.433594 20.183594 102.296875 20.191406 L 93.8125 20.816406 C 93.671875 20.824219 93.53125 20.839844 93.390625 20.859375 L 85.292969 21.890625 C 85.140625 21.910156 84.988281 21.9375 84.835938 21.964844 L 77.144531 23.40625 C 76.984375 23.4375 76.824219 23.472656 76.664063 23.515625 L 69.378906 25.355469 C 69.214844 25.394531 69.050781 25.441406 68.890625 25.492188 L 62 27.710938 C 61.828125 27.769531 61.65625 27.828125 61.488281 27.898438 L 55.007813 30.488281 C 54.832031 30.558594 54.65625 30.636719 54.488281 30.71875 L 48.417969 33.671875 C 48.238281 33.757813 48.066406 33.851563 47.894531 33.949219 L 42.234375 37.25 C 42.054688 37.351563 41.878906 37.464844 41.710938 37.582031 L 36.46875 41.214844 C 36.292969 41.335938 36.125 41.464844 35.957031 41.601563 L 31.132813 45.554688 C 30.964844 45.695313 30.800781 45.84375 30.640625 45.996094 L 26.246094 50.261719 C 26.082031 50.417969 25.929688 50.578125 25.78125 50.75 L 21.820313 55.308594 C 21.675781 55.476563 21.535156 55.648438 21.40625 55.824219 L 17.867188 60.660156 C 17.734375 60.839844 17.609375 61.027344 17.492188 61.21875 L 14.390625 66.316406 C 14.273438 66.507813 14.164063 66.703125 14.0625 66.90625 L 11.40625 72.242188 C 11.308594 72.441406 11.21875 72.640625 11.136719 72.84375 L 8.921875 78.410156 C 8.839844 78.609375 8.769531 78.808594 8.707031 79.015625 L 6.929688 84.792969 C 6.871094 84.988281 6.820313 85.1875 6.773438 85.390625 L 5.4375 91.359375 C 5.390625 91.554688 5.355469 91.75 5.328125 91.949219 L 4.429688 98.113281 C 4.402344 98.300781 4.382813 98.488281 4.367188 98.679688 L 3.90625 104.996094 C 3.894531 105.179688 3.886719 105.363281 3.886719 105.542969 L 3.867188 112.015625 C 3.867188 112.191406 3.871094 112.363281 3.882813 112.539063 L 4.296875 119.148438 C 4.308594 119.316406 4.324219 119.484375 4.34375 119.648438 L 5.199219 126.382813 C 5.21875 126.539063 5.246094 126.695313 5.273438 126.851563 L 6.5625 133.695313 C 6.59375 133.84375 6.625 133.992188 6.660156 134.136719 L 8.386719 141.082031 C 8.421875 141.222656 8.460938 141.363281 8.503906 141.5 L 10.664063 148.53125 C 10.707031 148.664063 10.75 148.796875 10.796875 148.925781 L 13.398438 156.035156 C 13.453125 156.1875 13.515625 156.335938 13.578125 156.480469 L 15.316406 160.472656 C 15.355469 160.5625 15.398438 160.648438 15.4375 160.734375 L 17.316406 164.644531 L 19.433594 168.734375 L 21.695313 172.78125 L 24.070313 176.765625 L 26.566406 180.714844 L 29.160156 184.609375 L 34.589844 192.226563 C 34.644531 192.304688 34.699219 192.378906 34.757813 192.453125 L 40.410156 199.808594 C 43.207031 203.304688 46.191406 206.949219 49.636719 211.066406 C 55.242188 217.652344 60.976563 224.195313 66.519531 230.523438 L 66.855469 230.90625 C 70.953125 235.578125 75.039063 240.234375 79.082031 244.921875 L 85.703125 252.730469 C 88.898438 256.589844 92.171875 260.636719 95.375 264.683594 L 101.6875 272.976563 C 104.472656 276.808594 107.277344 280.785156 110.605469 285.542969 L 116.113281 293.117188 C 117.511719 294.933594 118.753906 296.601563 120.007813 298.285156 C 128.660156 309.917969 138.40625 323.019531 155.960938 326.53125 L 159.453125 327.296875 C 159.683594 327.347656 159.917969 327.386719 160.15625 327.417969 L 163.792969 327.875 C 163.945313 327.894531 164.09375 327.910156 164.246094 327.917969 C 166.355469 328.0625 168.308594 328.148438 170.234375 328.179688 L 172.542969 328.1875 C 176.789063 328.1875 180.945313 328.117188 184.230469 328.054688 L 188.046875 327.859375 C 188.140625 327.851563 188.230469 327.847656 188.324219 327.835938 L 191.78125 327.535156 C 191.882813 327.527344 191.980469 327.519531 192.078125 327.503906 L 195.421875 327.085938 C 195.515625 327.074219 195.609375 327.0625 195.699219 327.046875 L 198.9375 326.527344 C 199.03125 326.511719 199.128906 326.496094 199.222656 326.476563 L 202.375 325.851563 C 202.476563 325.828125 202.578125 325.808594 202.683594 325.78125 L 205.714844 325.050781 C 205.804688 325.03125 205.894531 325.007813 205.984375 324.984375 L 208.933594 324.160156 C 209.042969 324.132813 209.152344 324.101563 209.257813 324.066406 L 212.109375 323.140625 C 212.195313 323.109375 212.285156 323.078125 212.371094 323.046875 L 215.132813 322.042969 C 215.238281 322.003906 215.339844 321.964844 215.441406 321.921875 L 218.117188 320.820313 C 218.210938 320.78125 218.300781 320.742188 218.390625 320.699219 L 220.976563 319.519531 C 221.070313 319.476563 221.164063 319.429688 221.253906 319.382813 L 223.757813 318.117188 C 223.847656 318.074219 223.9375 318.027344 224.023438 317.980469 L 226.445313 316.636719 C 226.527344 316.589844 226.613281 316.542969 226.695313 316.492188 L 229.035156 315.082031 C 229.117188 315.03125 229.199219 314.980469 229.28125 314.929688 L 231.558594 313.441406 C 231.675781 313.363281 231.789063 313.285156 231.902344 313.199219 L 236.214844 310.046875 C 236.347656 309.945313 236.480469 309.84375 236.609375 309.738281 L 240.660156 306.359375 C 240.777344 306.261719 240.894531 306.15625 241.007813 306.050781 L 244.816406 302.476563 C 244.890625 302.40625 244.964844 302.332031 245.039063 302.257813 C 246.960938 300.304688 248.78125 298.359375 250.617188 296.3125 C 252.449219 294.175781 254.164063 292.109375 255.824219 290.03125 C 257.632813 287.695313 259.183594 285.640625 260.644531 283.644531 C 262.363281 281.265625 264.035156 278.851563 265.785156 276.21875 C 267.621094 273.304688 269.214844 270.65625 270.769531 267.953125 C 272.414063 264.957031 273.839844 262.246094 275.21875 259.523438 C 276.609375 256.667969 277.9375 253.835938 279.230469 250.988281 C 281.578125 245.636719 283.890625 240.035156 286.339844 233.769531 C 287.839844 229.867188 289.300781 225.992188 290.761719 222.117188 L 290.878906 221.804688 C 293.234375 215.554688 295.671875 209.09375 298.179688 202.839844 C 299.714844 199.082031 301.113281 195.238281 302.40625 191.191406 C 312.480469 187 321.253906 181.203125 327.945313 174.289063 C 341.0625 160.734375 346.222656 143.488281 342.875 124.40625 " stroke-width="1" class="fil1" />
    <path style="fill-rule:nonzero;fill-opacity:1;" d="M 220.492188 37.496094 C 212.390625 35.289063 201.976563 37.707031 191.230469 40.78125 C 204.496094 44.722656 216 50.421875 225.753906 57.875 C 222.683594 51.957031 220.929688 45.164063 220.492188 37.496094 M 143.511719 64.421875 C 146.417969 70.011719 149.832031 71.65625 155.367188 71.984375 C 155.160156 67.167969 158.519531 64.519531 158.632813 59.164063 C 162.191406 63.546875 162.410156 68.148438 161.261719 72.640625 C 163.5625 72.3125 165.539063 71.542969 167.839844 70.335938 C 165.886719 61.90625 164.160156 52.96875 158.632813 52.585938 C 151.941406 54.332031 147.5625 59.152344 143.511719 64.421875 M 234.429688 186.890625 C 236.6875 189.324219 236.117188 192.011719 232.65625 194.964844 C 218.742188 201.925781 208.578125 202.78125 192.878906 203.515625 C 183.929688 203.929688 179.886719 196.316406 177.425781 191.679688 C 170.601563 178.816406 164.933594 165.378906 158.683594 152.230469 C 154.195313 144.773438 147.511719 140.0625 136.003906 141.378906 C 119.429688 140.84375 109.121094 130.285156 95.238281 121.328125 C 88.226563 111.902344 84.5 100.832031 88.011719 86.148438 C 97.652344 77.820313 105.101563 69.492188 110.363281 61.160156 C 105.980469 63.136719 101.597656 65.109375 97.214844 67.078125 C 48.441406 87.550781 30.171875 137.449219 74.195313 197.921875 C 95.292969 226.890625 127.203125 246.15625 153.695313 270.265625 C 164.898438 284.945313 162.945313 296.996094 147.84375 306.414063 C 133.160156 296.890625 124.949219 265 64.667969 204.828125 C 56.121094 194.3125 47.578125 183.785156 39.019531 173.265625 C 39.789063 165.816406 42.304688 159.242188 46.582031 153.542969 C 41.214844 155.410156 36.722656 158.144531 33.101563 161.761719 C 30.804688 156.390625 28.503906 151.027344 26.207031 145.65625 C 32.34375 134.691406 39.355469 125.488281 47.242188 118.039063 C 38.035156 118.914063 29.710938 123.296875 22.257813 131.1875 C 21.816406 124.503906 21.386719 117.816406 20.945313 111.136719 C 32.121094 99.40625 43.84375 89.320313 56.773438 82.859375 C 43.679688 80.941406 31.628906 86.3125 20.285156 96.671875 C 33.289063 54.882813 60.851563 33.238281 109.378906 49.988281 C 103.511719 53.519531 99.785156 57.410156 99.183594 61.820313 C 107.863281 55.054688 118.335938 50.066406 131.40625 47.683594 C 131.296875 50.96875 131.183594 54.257813 131.074219 57.546875 C 142.847656 46.316406 153.816406 38.09375 162.960938 36.511719 C 167.113281 36.519531 169.332031 38.464844 170.851563 41.109375 C 172.085938 54.042969 179.226563 62.746094 185.316406 66.753906 C 184.660156 63.683594 183.347656 60.832031 181.371094 58.203125 C 194.308594 56.453125 194.316406 66.492188 189.59375 75.300781 C 194.460938 73.050781 196.140625 72.316406 200.445313 76.617188 C 218.378906 73.027344 233.488281 70.539063 251.730469 69.710938 C 259.179688 71.902344 266.632813 74.09375 274.082031 76.285156 C 273.976563 77.929688 272.988281 80.011719 271.121094 82.53125 C 272.714844 86.199219 274.027344 90.035156 273.421875 95.023438 C 269.042969 104.667969 263.011719 113.765625 253.371094 121.65625 C 246.230469 115.851563 247.75 113.847656 246.796875 104.5625 C 226.59375 121.460938 218.578125 126.703125 189.925781 121.65625 C 181.808594 109.925781 173.757813 99.078125 162.144531 89.105469 C 143.066406 94.3125 130.746094 104.503906 132.722656 121.980469 C 159.925781 110.375 163.359375 120.074219 167.238281 139.410156 C 170.433594 155.367188 178.371094 170.050781 185.316406 184.773438 C 187.628906 189.667969 192.945313 191.960938 197.480469 190.035156 C 202.304688 187.625 206.621094 183.621094 211.945313 182.804688 C 214.796875 182.367188 217.667969 182.574219 220.542969 182.988281 C 221.925781 183.429688 223.308594 183.851563 224.691406 184.257813 C 227.648438 185.125 230.546875 185.910156 233.292969 186.597656 C 233.667969 186.695313 234.0625 186.796875 234.429688 186.890625 M 281.972656 71.683594 C 270.554688 56.691406 255.496094 44.578125 227.394531 42.75 C 226.742188 46.589844 227.835938 51.300781 230.6875 56.886719 C 232 59.085938 233.644531 63.578125 234.964844 65.765625 C 250.730469 63.746094 267.019531 67.257813 278.359375 74.96875 C 277.589844 77.054688 277.148438 82.425781 276.386719 84.503906 C 281.3125 100.585938 272.679688 109.914063 257.972656 123.957031 C 259.804688 142.398438 258.851563 159.914063 254.898438 176.417969 C 254.28125 178.988281 253.757813 181.472656 253.226563 183.945313 C 253.425781 183.953125 253.617188 183.953125 253.8125 183.960938 C 261.445313 184.28125 268.40625 183.828125 273.757813 182.890625 C 279.25 181.929688 284.242188 180.28125 288.789063 178.015625 C 289.019531 177.898438 289.246094 177.769531 289.476563 177.648438 C 289.535156 177.421875 289.589844 177.230469 289.648438 176.996094 C 298.886719 133.882813 297.085938 98.265625 281.972656 71.683594 M 262.902344 190.90625 C 259.410156 190.90625 255.890625 190.664063 252.371094 190.296875 C 252.171875 190.277344 251.96875 190.253906 251.765625 190.234375 C 251.097656 192.914063 250.347656 195.617188 249.308594 198.433594 C 247.90625 202.25 246.421875 205.957031 245.480469 210.421875 C 247.339844 220.707031 253.355469 243.066406 252.054688 260.71875 C 258.238281 255.191406 268.859375 237.679688 271.246094 225.492188 C 273.378906 214.582031 277.910156 206.132813 282.488281 197.066406 C 284.257813 193.566406 285.417969 190.921875 286.429688 188.042969 C 286.210938 188.097656 285.984375 188.136719 285.765625 188.191406 C 278.453125 189.921875 270.761719 190.90625 262.902344 190.90625 M 207.015625 127.242188 C 205.101563 132.617188 204.710938 137.980469 205.867188 143.351563 C 201.636719 137.367188 196.941406 131.699219 191.398438 126.585938 C 196.605469 127.46875 201.8125 128.128906 207.015625 127.242188 " stroke-width="1" class="fil2" />
    <path style="fill-rule:nonzero;fill-opacity:1;" d="M 203.4375 167.125 C 203.429688 167.152344 203.429688 167.175781 203.417969 167.203125 C 202.625 166.507813 201.800781 165.769531 201.015625 165.011719 C 200.761719 164.765625 200.515625 164.601563 200.277344 164.496094 C 199.570313 164.179688 198.972656 164.40625 198.632813 164.609375 C 197.234375 165.449219 196.488281 168.167969 196.828125 169.328125 C 196.882813 169.519531 197.058594 169.730469 197.140625 169.925781 C 197.335938 170.394531 197.542969 170.863281 197.886719 171.355469 C 197.929688 171.417969 197.933594 171.472656 197.980469 171.535156 C 195.917969 172 194.347656 171.628906 193.335938 170.449219 C 192.210938 169.132813 191.09375 165.882813 190.804688 162.921875 C 190.667969 160.875 190.878906 159.332031 191.445313 158.410156 C 191.445313 158.410156 191.445313 158.40625 191.445313 158.40625 C 191.644531 158.085938 191.882813 157.839844 192.164063 157.667969 C 192.199219 157.644531 192.253906 157.648438 192.292969 157.628906 C 192.640625 157.441406 193.085938 157.386719 193.582031 157.402344 C 194.191406 157.433594 194.859375 157.5625 195.578125 157.816406 C 195.648438 157.84375 195.71875 157.871094 195.792969 157.898438 C 198.253906 158.835938 201.058594 160.875 202.5 162.9375 C 203.628906 164.5625 203.925781 165.882813 203.4375 167.125 M 203.433594 162.285156 C 202.566406 161.042969 201.199219 159.765625 199.664063 158.691406 L 199.671875 158.6875 L 198.273438 156.105469 C 191.207031 143.070313 183.902344 129.589844 172.933594 122.152344 L 172.222656 123.042969 C 177.503906 127.972656 187.15625 146.566406 189.679688 163.347656 L 189.714844 163.34375 C 190.082031 166.464844 191.25 169.765625 192.472656 171.191406 C 193.191406 172.027344 194.40625 172.863281 196.386719 172.863281 C 197.113281 172.863281 197.972656 172.714844 198.925781 172.449219 C 199.003906 172.425781 199.058594 172.4375 199.140625 172.414063 L 199.53125 172.292969 L 199.972656 172.160156 L 199.40625 171.496094 C 199.25 171.3125 199.15625 171.144531 199.019531 170.964844 C 198.933594 170.855469 198.859375 170.75 198.78125 170.640625 C 198.386719 170.070313 198.074219 169.523438 197.917969 169.007813 C 197.699219 168.246094 198.320313 166.128906 199.222656 165.585938 C 199.324219 165.523438 199.449219 165.488281 199.585938 165.492188 C 199.753906 165.5 199.949219 165.585938 200.199219 165.816406 C 200.207031 165.828125 200.210938 165.824219 200.222656 165.832031 C 201.207031 166.78125 202.242188 167.691406 203.210938 168.535156 L 203.714844 168.96875 L 203.75 168.910156 L 204.058594 168.429688 L 204.070313 168.410156 C 204.179688 168.238281 204.214844 168.058594 204.304688 167.882813 C 205.136719 166.179688 204.898438 164.390625 203.433594 162.285156 M 254.175781 89.402344 L 253.183594 89.660156 L 252.628906 88.710938 L 253.414063 87.898438 C 258.722656 82.390625 260.738281 80.359375 262.535156 80.640625 C 264.042969 80.890625 264.898438 82.738281 266.453125 86.085938 C 267.402344 88.128906 268.582031 90.667969 270.304688 93.761719 L 269.425781 94.460938 C 268.257813 93.390625 267.296875 92.46875 266.480469 91.6875 C 261.988281 87.363281 261.980469 87.367188 254.175781 89.402344 M 215.414063 94.933594 C 214.519531 95.960938 213.519531 97.109375 212.371094 98.367188 L 211.40625 97.804688 C 213.835938 90.394531 217.0625 82.328125 224.625 80.339844 L 224.769531 80.300781 L 224.914063 80.339844 C 231.949219 82.171875 232.589844 86.609375 232.242188 91.125 L 232.171875 91.972656 L 231.417969 91.59375 C 222.289063 87.023438 220.972656 88.539063 215.414063 94.933594 M 158.628906 59.164063 C 158.519531 64.519531 155.160156 67.167969 155.367188 71.984375 C 149.832031 71.65625 146.417969 70.011719 143.511719 64.421875 C 147.5625 59.152344 151.941406 54.332031 158.628906 52.585938 C 164.160156 52.96875 165.886719 61.90625 167.839844 70.339844 C 165.539063 71.542969 163.5625 72.3125 161.261719 72.640625 C 162.410156 68.148438 162.191406 63.546875 158.628906 59.164063 M 165.144531 47.386719 C 163.0625 44.710938 161.167969 43.589844 159.4375 44.097656 C 151.203125 47.96875 143.933594 53.316406 136.574219 60.917969 C 131.617188 61.808594 128.542969 63.722656 125.566406 65.574219 C 124.222656 66.410156 122.957031 67.195313 121.566406 67.851563 L 121.882813 68.9375 C 128.246094 68.160156 133.539063 67.710938 138.664063 69.515625 C 144.398438 77.25 156.011719 80.039063 168.398438 76.652344 C 172 80.292969 174.792969 82.035156 177.042969 82.035156 C 177.390625 82.035156 177.730469 81.992188 178.050781 81.910156 C 179.933594 81.429688 181.289063 79.632813 182.195313 76.410156 L 182.523438 75.246094 L 181.414063 75.734375 C 178.46875 77.027344 176.984375 76.445313 173.535156 70.277344 C 174.757813 66.789063 169.984375 53.582031 165.144531 47.386719 M 239.039063 159.589844 C 242.65625 148.304688 245.28125 133.070313 244.167969 119.023438 C 245.921875 120.667969 251.613281 124.875 253.367188 126.523438 C 252.925781 135.667969 248.085938 152.324219 239.039063 159.589844 M 169.832031 188.367188 C 173.707031 197.898438 179.074219 204.023438 185.800781 206.613281 C 163.320313 210.242188 147.292969 215.984375 134.164063 225.085938 L 121.992188 208.542969 C 134.695313 198.191406 150.785156 191.40625 169.832031 188.367188 M 108.0625 184.320313 C 120.65625 174.46875 136.351563 167.605469 157.398438 162.746094 C 159.742188 167.308594 162.09375 171.867188 164.445313 176.425781 L 168.011719 183.339844 C 151.574219 185.800781 135.320313 192.480469 118.367188 203.738281 C 113.746094 198.09375 110.285156 191.566406 108.0625 184.320313 M 106.625 160.632813 L 106.652344 160.527344 C 107.109375 157.316406 121.929688 149.285156 136.6875 148.246094 C 137.59375 148.1875 138.527344 148.148438 139.476563 148.148438 C 146.261719 148.148438 153.742188 150.046875 156.304688 157.699219 C 137.144531 161.195313 120.246094 168.542969 106.066406 179.535156 C 104.28125 173.25 104.46875 166.898438 106.625 160.632813 M 169.179688 281.003906 C 180.769531 280.789063 192.773438 280.652344 204.390625 280.519531 C 215.847656 280.390625 227.6875 280.253906 239.128906 280.046875 C 236.296875 284.101563 230.667969 290.851563 221.605469 296.339844 C 201.863281 300.203125 183.910156 300.242188 166.757813 296.480469 C 168.761719 292.210938 169.65625 286.523438 169.179688 281.003906 M 215.363281 301.898438 C 205.964844 307.386719 186 315.75 160.570313 307.75 L 164.832031 301.507813 C 180.035156 306.636719 197.988281 304.878906 215.363281 301.898438 M 241.09375 273.640625 L 167.933594 276.242188 C 164.75 268.660156 160.933594 261.902344 155.964844 255.058594 C 194.386719 239.71875 222.855469 237.0625 242.972656 246.949219 C 243.957031 256.476563 243.339844 265.21875 241.09375 273.640625 M 243.058594 239.570313 C 218.128906 230.824219 188.863281 234.535156 153.648438 250.929688 C 150.089844 242.828125 144.898438 235.234375 138.589844 228.890625 C 155 216.742188 185.804688 209.285156 230.15625 206.726563 C 240.875 216.28125 245.097656 227.035156 243.058594 239.570313 M 108.566406 153.222656 C 110.558594 148.824219 112.992188 144.191406 116.441406 140.695313 C 117.882813 143.117188 121.351563 144.167969 125 145.269531 C 125.230469 145.339844 125.464844 145.410156 125.699219 145.480469 C 119.757813 146.691406 113.335938 149.597656 108.566406 153.222656 M 86.347656 38.828125 C 105.371094 36.226563 123.058594 36.246094 140.152344 38.878906 C 130.089844 41.097656 122.453125 43.605469 116.308594 46.703125 C 107.320313 41.054688 96.496094 39.4375 86.347656 38.828125 M 203.167969 71.054688 C 201.632813 69.988281 199.734375 69.269531 197.507813 68.90625 C 198.753906 62.847656 197.980469 58.335938 195.21875 55.480469 C 191.179688 51.316406 183.964844 51.808594 179.722656 52.554688 L 179.464844 51.835938 C 177.894531 47.472656 176.632813 43.972656 177.179688 41.453125 C 198.445313 46.117188 214.914063 54.363281 227.46875 66.644531 L 227.226563 66.671875 C 219.347656 67.566406 211.207031 68.492188 203.167969 71.054688 M 193.253906 40.800781 C 202.300781 38.273438 212.257813 36.011719 219.949219 37.941406 C 220.371094 44.601563 221.804688 50.671875 224.222656 56.027344 C 215.316406 49.574219 204.917969 44.464844 193.253906 40.800781 M 204.886719 141.019531 C 201.078125 135.824219 197.210938 131.359375 193.148438 127.449219 C 197.191406 128.085938 201.6875 128.550781 206.175781 127.949219 C 204.761719 132.292969 204.332031 136.675781 204.886719 141.019531 M 211.453125 127.933594 C 214.71875 127.769531 220.179688 127.160156 223.316406 126.324219 C 224.816406 137.386719 220.359375 158.96875 212.113281 165.558594 C 213.101563 154.5 212.820313 138.125 211.453125 127.933594 M 303.507813 122.320313 L 303.203125 115.738281 L 302.636719 109.421875 L 301.832031 103.363281 L 300.765625 97.5625 L 299.460938 92.015625 L 297.910156 86.730469 L 296.113281 81.695313 L 294.078125 76.917969 L 291.800781 72.394531 L 289.289063 68.132813 L 286.542969 64.128906 L 283.574219 60.390625 L 280.382813 56.910156 L 276.964844 53.695313 L 273.335938 50.738281 L 269.503906 48.046875 L 265.46875 45.621094 L 261.230469 43.460938 L 256.808594 41.5625 L 252.195313 39.917969 L 247.40625 38.542969 L 242.445313 37.414063 L 237.316406 36.542969 L 232.015625 35.917969 L 228.574219 35.683594 L 228.367188 35.195313 L 227.628906 34.027344 L 226.746094 33.003906 L 225.726563 32.128906 L 224.613281 31.40625 L 223.433594 30.816406 L 222.191406 30.339844 L 220.875 29.972656 L 218.152344 29.5 C 216.75 29.371094 215.308594 29.304688 213.722656 29.296875 C 212.1875 29.335938 210.632813 29.417969 208.964844 29.546875 C 203.988281 30.046875 199.171875 30.878906 195.535156 31.550781 C 194.210938 31.792969 192.882813 32.046875 191.558594 32.300781 C 189.210938 32.746094 186.867188 33.191406 184.539063 33.605469 C 183.652344 33.734375 182.910156 33.800781 182.234375 33.832031 C 181.519531 33.820313 180.863281 33.773438 180.210938 33.679688 C 179.53125 33.535156 178.941406 33.367188 178.386719 33.171875 C 177.789063 32.910156 177.246094 32.632813 176.710938 32.308594 C 176.152344 31.925781 175.644531 31.523438 175.136719 31.0625 L 174.222656 30.144531 L 171.761719 29.085938 L 169.898438 28.492188 L 168.097656 28.074219 L 166.34375 27.824219 L 164.660156 27.734375 L 163.035156 27.777344 L 161.476563 27.953125 L 159.960938 28.226563 L 157.171875 28.988281 C 155.855469 29.441406 154.5625 29.949219 153.265625 30.453125 C 152.347656 30.8125 151.429688 31.171875 150.503906 31.511719 L 140.816406 30 L 130.742188 28.835938 L 121.058594 28.136719 L 111.800781 27.894531 L 102.882813 28.089844 L 94.398438 28.714844 L 86.300781 29.75 L 78.613281 31.191406 L 71.324219 33.035156 L 64.433594 35.25 L 57.957031 37.84375 L 51.886719 40.796875 L 46.230469 44.09375 L 40.988281 47.726563 L 36.164063 51.679688 L 31.765625 55.945313 L 27.804688 60.503906 L 24.261719 65.339844 L 21.160156 70.433594 L 18.503906 75.773438 L 16.285156 81.339844 L 14.507813 87.121094 L 13.171875 93.089844 L 12.273438 99.253906 L 11.816406 105.570313 L 11.792969 112.042969 L 12.210938 118.648438 L 13.066406 125.386719 L 14.355469 132.230469 L 16.078125 139.171875 L 18.242188 146.203125 L 20.84375 153.3125 L 22.585938 157.304688 L 24.460938 161.214844 L 26.46875 165.085938 L 28.613281 168.910156 L 30.878906 172.710938 L 33.265625 176.476563 L 35.757813 180.21875 L 41.042969 187.628906 L 46.695313 194.980469 C 49.363281 198.316406 52.3125 201.914063 55.71875 205.984375 C 61.355469 212.605469 67.183594 219.253906 72.820313 225.6875 C 76.921875 230.363281 81.023438 235.039063 85.085938 239.746094 L 91.75 247.609375 C 95.078125 251.625 98.390625 255.71875 101.59375 259.769531 L 107.996094 268.179688 C 110.910156 272.183594 113.742188 276.199219 117.101563 281.003906 L 122.523438 288.460938 C 123.832031 290.148438 125.125 291.882813 126.425781 293.632813 C 134.550781 304.554688 142.949219 315.847656 157.523438 318.765625 L 161.152344 319.558594 L 164.792969 320.015625 C 166.753906 320.152344 168.574219 320.230469 170.367188 320.261719 C 171.09375 320.265625 171.824219 320.269531 172.546875 320.269531 C 176.742188 320.269531 180.835938 320.195313 184.078125 320.132813 L 187.640625 319.945313 L 191.101563 319.644531 L 194.449219 319.226563 L 197.683594 318.707031 L 200.835938 318.082031 L 203.867188 317.351563 L 206.816406 316.53125 L 209.667969 315.605469 L 212.429688 314.601563 L 215.105469 313.496094 L 217.6875 312.316406 L 220.191406 311.050781 L 222.613281 309.707031 L 224.953125 308.296875 L 227.230469 306.8125 L 231.542969 303.652344 L 235.59375 300.277344 L 239.398438 296.703125 C 241.222656 294.847656 242.960938 292.996094 244.71875 291.03125 C 246.386719 289.089844 248.042969 287.089844 249.640625 285.085938 C 251.328125 282.90625 252.835938 280.90625 254.257813 278.964844 C 255.894531 276.699219 257.507813 274.371094 259.195313 271.832031 C 260.863281 269.179688 262.402344 266.625 263.910156 264.007813 C 265.425781 261.230469 266.816406 258.597656 268.15625 255.949219 C 269.460938 253.265625 270.761719 250.496094 272.027344 247.714844 C 274.28125 242.570313 276.554688 237.066406 278.964844 230.886719 C 280.449219 227.039063 281.90625 223.183594 283.355469 219.328125 C 285.761719 212.9375 288.25 206.328125 290.835938 199.890625 C 292.800781 195.074219 294.492188 190.191406 295.96875 185.207031 C 295.761719 185.285156 295.535156 185.335938 295.324219 185.410156 C 295.109375 185.488281 294.882813 185.546875 294.667969 185.621094 C 292.199219 186.480469 289.671875 187.246094 287.082031 187.898438 C 286.867188 187.953125 286.644531 187.988281 286.429688 188.042969 C 286.210938 188.097656 285.984375 188.136719 285.765625 188.1875 C 284.785156 190.929688 283.660156 193.488281 281.980469 196.808594 L 281.054688 198.636719 C 276.753906 207.117188 272.691406 215.132813 270.6875 225.382813 C 268.398438 237.066406 258.683594 253.140625 252.714844 259.289063 C 253.417969 245.410156 249.921875 228.914063 247.578125 217.867188 C 246.964844 214.980469 246.433594 212.476563 246.0625 210.429688 C 246.875 206.621094 248.113281 203.296875 249.308594 200.082031 L 249.847656 198.628906 C 250.90625 195.753906 251.691406 193.015625 252.371094 190.296875 C 252.167969 190.277344 251.96875 190.253906 251.765625 190.230469 C 251.585938 190.214844 251.40625 190.195313 251.226563 190.175781 C 250.351563 190.074219 249.472656 190.023438 248.59375 189.898438 C 246.878906 189.652344 241.734375 188.660156 235.332031 187.105469 C 235.027344 187.035156 234.738281 186.964844 234.429688 186.890625 C 234.0625 186.796875 233.667969 186.695313 233.292969 186.597656 C 234.453125 187.574219 235.121094 188.582031 235.214844 189.609375 C 235.351563 191.101563 234.367188 192.757813 232.402344 194.457031 C 218.460938 201.429688 208.289063 202.226563 192.851563 202.945313 C 192.625 202.953125 192.40625 202.960938 192.191406 202.960938 C 184.058594 202.960938 180.238281 195.761719 177.929688 191.414063 C 173.390625 182.855469 169.292969 173.886719 165.328125 165.214844 C 163.335938 160.867188 161.285156 156.371094 159.171875 151.933594 C 153.882813 143.140625 146.515625 139.605469 136.023438 140.808594 C 123.308594 140.398438 114.132813 133.867188 104.417969 126.953125 C 101.605469 124.953125 98.707031 122.886719 95.636719 120.902344 C 87.753906 110.269531 85.492188 99.316406 88.523438 86.460938 C 98.09375 78.175781 105.601563 69.765625 110.84375 61.464844 L 110.128906 60.640625 L 96.992188 66.554688 C 73.226563 76.53125 56.929688 93.515625 51.109375 114.382813 C 44.144531 139.351563 51.964844 168.355469 73.734375 198.257813 C 87.839844 217.632813 107.054688 232.90625 125.640625 247.675781 C 134.910156 255.042969 144.492188 262.664063 153.242188 270.613281 C 158.816406 277.917969 161.097656 284.621094 160.015625 290.539063 C 158.992188 296.160156 154.898438 301.269531 147.851563 305.734375 C 142.339844 302.015625 137.625 294.933594 130.558594 284.308594 C 119.113281 267.105469 101.816406 241.105469 65.113281 204.46875 L 39.617188 173.089844 C 40.394531 165.875 42.890625 159.414063 47.039063 153.886719 L 46.394531 153.003906 C 41.261719 154.785156 36.863281 157.398438 33.300781 160.773438 L 26.839844 145.6875 C 32.886719 134.9375 39.878906 125.773438 47.632813 118.453125 L 47.1875 117.46875 C 38.257813 118.320313 30.039063 122.488281 22.738281 129.863281 L 21.53125 111.347656 C 34.28125 97.992188 45.566406 89.097656 57.03125 83.367188 L 56.859375 82.292969 C 44.828125 80.523438 33.222656 84.644531 21.464844 94.859375 C 28.691406 72.789063 39.785156 57.839844 54.457031 50.421875 C 68.84375 43.136719 86.878906 43.046875 108.050781 50.140625 C 102.273438 53.820313 99.179688 57.628906 98.621094 61.742188 L 99.535156 62.269531 C 108.601563 55.203125 118.84375 50.65625 130.8125 48.375 L 130.5 57.527344 L 131.464844 57.960938 C 144.941406 45.109375 154.980469 38.472656 162.960938 37.078125 C 166.324219 37.085938 168.59375 38.386719 170.296875 41.289063 C 171.558594 54.109375 178.714844 63.089844 185 67.230469 L 185.875 66.632813 C 185.269531 63.800781 184.105469 61.125 182.402344 58.65625 C 186.472656 58.253906 189.285156 59.152344 190.753906 61.269531 C 192.746094 64.136719 192.105469 69.410156 189.089844 75.03125 L 189.832031 75.820313 C 194.5625 73.628906 195.992188 72.972656 200.042969 77.019531 L 200.253906 77.234375 L 200.554688 77.175781 C 218.75 73.53125 233.65625 71.105469 251.660156 70.285156 L 273.460938 76.695313 C 273.222656 78.160156 272.285156 80.003906 270.664063 82.191406 L 270.464844 82.457031 L 270.597656 82.757813 C 272.003906 85.996094 273.453125 89.867188 272.863281 94.871094 C 267.945313 105.6875 261.742188 113.980469 253.371094 120.917969 C 248.164063 116.601563 248.042969 114.53125 247.722656 109.195313 C 247.640625 107.847656 247.546875 106.316406 247.363281 104.503906 L 247.253906 103.433594 L 246.429688 104.125 C 226.300781 120.964844 218.550781 126.089844 190.257813 121.132813 C 182.773438 110.328125 174.460938 98.933594 162.515625 88.671875 L 162.285156 88.476563 L 161.996094 88.554688 C 140.351563 94.460938 130.3125 105.730469 132.152344 122.046875 L 132.238281 122.808594 L 132.945313 122.503906 C 144.714844 117.484375 152.441406 116.3125 157.253906 118.855469 C 162.730469 121.738281 164.617188 129.238281 166.679688 139.519531 C 169.382813 153.019531 175.515625 165.730469 181.449219 178.019531 C 182.574219 180.355469 183.699219 182.6875 184.800781 185.019531 C 187.234375 190.164063 192.890625 192.589844 197.738281 190.542969 C 199.371094 189.726563 200.960938 188.722656 202.5 187.75 C 205.5 185.855469 208.601563 183.894531 212.035156 183.367188 C 216.179688 182.722656 220.503906 183.488281 224.691406 184.257813 C 223.308594 183.851563 221.925781 183.429688 220.542969 182.988281 C 219.65625 182.703125 218.765625 182.421875 217.890625 182.121094 C 215.027344 181.148438 212.257813 180.105469 209.703125 179.003906 C 209.457031 178.898438 209.199219 178.796875 208.957031 178.6875 C 208.691406 178.570313 208.457031 178.445313 208.199219 178.324219 C 205.175781 179.394531 202.40625 180.960938 199.921875 182.390625 C 198.628906 183.132813 197.410156 183.839844 196.238281 184.425781 C 194.941406 185.074219 193.824219 185.207031 192.835938 184.820313 C 189.871094 183.679688 187.714844 178.105469 184.734375 170.390625 C 184.078125 168.703125 183.382813 166.90625 182.628906 165.023438 C 181.824219 163.007813 180.792969 161.078125 179.707031 159.035156 C 178.183594 156.183594 176.613281 153.238281 175.523438 149.796875 C 173.601563 143.726563 172.691406 138.335938 171.894531 133.578125 C 170.878906 127.546875 170.058594 122.675781 167.617188 118.785156 C 175.511719 120 180.429688 122.144531 186.59375 126.960938 C 191.957031 131.160156 197.078125 137.851563 201.597656 143.753906 C 204.808594 147.945313 207.84375 151.910156 210.554688 154.445313 C 210.496094 158.691406 210.441406 162.9375 210.386719 167.175781 L 210.378906 167.960938 L 210.742188 167.847656 L 210.75 167.84375 L 211.125 167.726563 C 213.167969 167.097656 214.746094 166.117188 215.820313 164.808594 C 218.132813 169.21875 218.839844 172.507813 219.535156 176.789063 C 219.738281 176.878906 219.945313 176.957031 220.152344 177.039063 C 220.359375 177.121094 220.5625 177.207031 220.769531 177.289063 C 231.101563 181.398438 242.429688 183.382813 252.65625 183.914063 C 252.847656 183.925781 253.039063 183.933594 253.226563 183.941406 C 253.425781 183.953125 253.617188 183.953125 253.8125 183.960938 C 253.882813 183.628906 253.957031 183.300781 254.027344 182.964844 C 254.476563 180.859375 254.929688 178.730469 255.453125 176.554688 C 259.335938 160.347656 260.382813 142.726563 258.566406 124.179688 C 273.179688 110.214844 281.875 100.757813 276.984375 84.519531 C 277.351563 83.414063 277.632813 81.675781 277.929688 79.84375 C 278.222656 78.03125 278.527344 76.160156 278.890625 75.167969 L 279.046875 74.746094 L 278.679688 74.496094 C 267.222656 66.707031 251.023438 63.246094 235.269531 65.152344 C 234.664063 64.082031 233.988281 62.550781 233.328125 61.0625 C 232.597656 59.417969 231.847656 57.714844 231.195313 56.625 C 228.542969 51.433594 227.429688 46.96875 227.882813 43.355469 C 257.464844 45.429688 271.59375 59.003906 281.476563 71.964844 C 295.976563 97.472656 298.539063 132.769531 289.097656 176.851563 C 288.988281 177.269531 288.890625 177.617188 288.789063 178.015625 C 289.023438 177.898438 289.246094 177.769531 289.476563 177.648438 C 289.707031 177.527344 289.933594 177.40625 290.164063 177.28125 C 293.019531 175.738281 295.683594 173.929688 298.148438 171.851563 C 298.378906 171.65625 298.621094 171.476563 298.847656 171.273438 C 299.070313 171.082031 299.308594 170.910156 299.53125 170.710938 C 301.214844 162.199219 302.339844 153.265625 302.890625 143.621094 L 303.355469 136.253906 L 303.558594 129.152344 Z M 303.507813 122.320313 " stroke-width="1" class="fil3" />
    <path style="fill-rule:nonzero;fill-opacity:1;" d="M 244.167969 119.023438 C 245.28125 133.070313 242.65625 148.304688 239.039063 159.589844 C 248.085938 152.324219 252.929688 135.667969 253.367188 126.523438 C 251.613281 124.875 245.921875 120.667969 244.167969 119.023438 M 223.78125 125.597656 C 225.550781 136.433594 221.152344 158.5625 212.753906 165.722656 C 212.320313 166.09375 211.882813 166.460938 211.425781 166.746094 C 211.476563 166.253906 211.511719 165.683594 211.554688 165.167969 C 212.5 154.246094 212.273438 137.75 210.804688 127.390625 C 213.980469 127.277344 220.605469 126.585938 223.78125 125.597656 " stroke-width="1" class="fil4" />
    <path style="fill-rule:nonzero;fill-opacity:1;" d="M 195.789063 157.898438 C 195.71875 157.871094 195.648438 157.84375 195.578125 157.816406 C 194.859375 157.5625 194.191406 157.433594 193.582031 157.402344 C 193.085938 157.386719 192.640625 157.441406 192.292969 157.628906 C 192.253906 157.648438 192.199219 157.644531 192.164063 157.667969 C 191.882813 157.839844 191.644531 158.085938 191.445313 158.40625 C 191.445313 158.40625 191.441406 158.410156 191.441406 158.410156 C 190.878906 159.332031 190.671875 160.875 190.804688 162.921875 C 191.097656 165.882813 192.210938 169.132813 193.339844 170.449219 C 194.347656 171.628906 195.917969 172 197.980469 171.535156 C 197.9375 171.472656 197.933594 171.417969 197.890625 171.355469 C 197.542969 170.863281 197.335938 170.394531 197.140625 169.925781 C 197.058594 169.730469 196.882813 169.519531 196.824219 169.328125 C 196.484375 168.167969 197.234375 165.449219 198.632813 164.609375 C 198.972656 164.40625 199.570313 164.179688 200.277344 164.496094 C 200.515625 164.601563 200.761719 164.765625 201.015625 165.011719 C 201.800781 165.769531 202.621094 166.507813 203.421875 167.203125 C 203.429688 167.175781 203.429688 167.152344 203.4375 167.125 C 203.929688 165.882813 203.628906 164.5625 202.5 162.9375 C 201.058594 160.875 198.257813 158.835938 195.789063 157.898438 " stroke-width="1" class="fil5" />
    <path style="fill-rule:nonzero;fill-opacity:1;" d="M 204.304688 167.882813 C 204.214844 168.058594 204.179688 168.238281 204.070313 168.410156 L 204.058594 168.429688 L 203.75 168.910156 L 203.714844 168.96875 L 203.210938 168.535156 C 202.242188 167.691406 201.207031 166.78125 200.222656 165.832031 C 200.210938 165.824219 200.207031 165.828125 200.199219 165.816406 C 199.949219 165.585938 199.753906 165.5 199.585938 165.492188 C 199.449219 165.488281 199.324219 165.523438 199.222656 165.585938 C 198.320313 166.128906 197.699219 168.246094 197.917969 169.007813 C 198.074219 169.523438 198.386719 170.070313 198.78125 170.640625 C 198.859375 170.75 198.933594 170.859375 199.019531 170.964844 C 199.15625 171.144531 199.25 171.3125 199.40625 171.496094 L 199.976563 172.160156 L 199.53125 172.292969 L 199.140625 172.414063 C 199.058594 172.4375 199.003906 172.425781 198.925781 172.449219 C 197.976563 172.714844 197.113281 172.863281 196.386719 172.863281 C 194.40625 172.863281 193.191406 172.027344 192.472656 171.191406 C 191.25 169.765625 190.078125 166.460938 189.714844 163.34375 L 189.679688 163.347656 C 187.15625 146.566406 177.503906 127.972656 172.222656 123.042969 L 172.933594 122.152344 C 183.902344 129.589844 191.207031 143.070313 198.273438 156.105469 L 199.671875 158.6875 L 199.664063 158.695313 C 201.199219 159.765625 202.566406 161.042969 203.433594 162.285156 C 204.898438 164.390625 205.140625 166.179688 204.304688 167.882813 M 335.078125 125.777344 L 333.957031 125.765625 C 332.21875 134.511719 327.503906 146.539063 322.558594 152.1875 C 324.238281 138.234375 323.820313 127.589844 321.3125 120.523438 L 320.207031 120.660156 C 318 143.472656 311.070313 160.199219 299.53125 170.710938 C 299.3125 170.910156 299.070313 171.082031 298.847656 171.277344 C 298.621094 171.476563 298.378906 171.65625 298.148438 171.851563 C 295.683594 173.929688 293.019531 175.738281 290.160156 177.28125 C 289.933594 177.402344 289.707031 177.527344 289.476563 177.648438 C 289.242188 177.769531 289.023438 177.898438 288.785156 178.015625 C 284.242188 180.28125 279.246094 181.929688 273.753906 182.890625 C 268.40625 183.828125 261.445313 184.28125 253.8125 183.960938 C 253.617188 183.953125 253.425781 183.953125 253.230469 183.945313 C 253.035156 183.933594 252.847656 183.925781 252.65625 183.914063 C 242.429688 183.378906 231.101563 181.398438 220.769531 177.289063 C 220.5625 177.207031 220.359375 177.121094 220.152344 177.039063 C 219.390625 172.304688 218.667969 168.78125 215.890625 163.734375 C 215.261719 164.75 214.265625 165.519531 213.097656 166.175781 C 212.4375 166.546875 211.789063 166.925781 210.957031 167.183594 C 210.96875 166.492188 210.976563 165.796875 210.988281 165.109375 C 211.03125 161.472656 211.078125 157.835938 211.128906 154.199219 C 204.632813 148.253906 196.273438 133.816406 186.945313 126.511719 C 180.128906 121.183594 174.78125 119.171875 166.414063 118.039063 C 171.535156 124.875 170.410156 135.542969 174.976563 149.96875 C 176.863281 155.914063 180.179688 160.429688 182.101563 165.234375 C 187.644531 179.070313 189.957031 188.226563 196.492188 184.9375 C 200.148438 183.101563 204.28125 180.222656 208.957031 178.6875 C 209.199219 178.792969 209.453125 178.898438 209.703125 179.003906 C 212.257813 180.109375 215.027344 181.152344 217.890625 182.121094 C 218.769531 182.417969 219.65625 182.703125 220.542969 182.988281 C 221.925781 183.429688 223.308594 183.851563 224.691406 184.257813 C 227.648438 185.125 230.546875 185.90625 233.289063 186.597656 C 233.667969 186.695313 234.0625 186.796875 234.429688 186.890625 C 234.738281 186.964844 235.027344 187.035156 235.328125 187.109375 C 241.734375 188.660156 246.878906 189.652344 248.59375 189.898438 C 249.472656 190.023438 250.351563 190.074219 251.226563 190.175781 C 251.40625 190.195313 251.585938 190.210938 251.769531 190.234375 C 251.96875 190.253906 252.167969 190.277344 252.371094 190.296875 C 255.890625 190.660156 259.410156 190.90625 262.902344 190.90625 C 270.765625 190.90625 278.453125 189.921875 285.765625 188.191406 C 285.984375 188.136719 286.210938 188.097656 286.429688 188.042969 C 286.644531 187.988281 286.867188 187.953125 287.082031 187.898438 C 289.671875 187.246094 292.199219 186.480469 294.664063 185.621094 C 294.882813 185.546875 295.109375 185.488281 295.324219 185.410156 C 295.535156 185.335938 295.761719 185.285156 295.96875 185.207031 C 306.308594 181.425781 315.402344 175.867188 322.261719 168.78125 C 333.539063 157.125 337.972656 142.253906 335.078125 125.777344 " stroke-width="1" class="fil5" />
    <path style="fill-rule:nonzero;fill-opacity:1;" d="M 161.261719 72.640625 C 162.410156 68.148438 162.191406 63.546875 158.632813 59.164063 C 158.519531 64.519531 155.160156 67.167969 155.367188 71.984375 C 149.832031 71.65625 146.417969 70.011719 143.511719 64.421875 C 147.5625 59.152344 151.941406 54.332031 158.632813 52.585938 C 164.160156 52.96875 165.886719 61.90625 167.839844 70.335938 C 165.539063 71.542969 163.5625 72.3125 161.261719 72.640625 " stroke-width="1" class="fil6" />
  </g>
</svg>