<?xml version="1.0" encoding="utf-8"?>
<svg xmlns="http://www.w3.org/2000/svg" xmlns:xlink="http://www.w3.org/1999/xlink" width="348pt" height="348pt" viewBox="0 0 348 348" version="1.1">
  <style type="text/css"><![CDATA[.fil0{fill:#FFFFFF}
.fil1{fill:#E6E6E6}
.fil2{fill:#0E0E0E}
.fil3{fill:#6896C2}
.fil4{fill:#D10000}
.fil5{fill:#F8F2D8}
]]></style>
  <g id="surface1">
    <path style="fill-rule:nonzero;fill-opacity:1;" d="M 222.144531 128.882813 C 226.601563 127.484375 231.050781 126.070313 235.503906 124.648438 C 231.050781 126.070313 226.597656 127.484375 222.140625 128.882813 Z M 222.144531 128.882813 " stroke-width="1" class="fil1" />
    <path style="fill-rule:nonzero;fill-opacity:1;" d="M 227.9375 134.246094 L 227.476563 133.628906 L 227.9375 134.25 L 229.246094 136.695313 L 229.335938 136.914063 L 229.246094 136.691406 Z M 227.9375 134.246094 " stroke-width="1" class="fil1" />
    <path style="fill-rule:nonzero;fill-opacity:1;" d="M 232.390625 152.683594 C 232.386719 154.050781 232.324219 155.378906 232.230469 156.703125 C 232.324219 155.378906 232.386719 154.050781 232.394531 152.6875 L 232.117188 148.691406 Z M 232.390625 152.683594 " stroke-width="1" class="fil1" />
    <path style="fill-rule:nonzero;fill-opacity:1;" d="M 324.726563 166.800781 C 322.636719 168.257813 320.082031 169.1875 316.886719 170.164063 C 314.050781 170.839844 311.121094 171.246094 308.433594 172.398438 C 303.21875 175.167969 299.703125 180.308594 295.757813 184.550781 C 294.21875 186.09375 292.652344 187.550781 290.996094 188.964844 C 287.710938 191.589844 284.429688 193.746094 280.710938 195.707031 C 278.304688 196.871094 275.917969 197.871094 273.410156 198.789063 C 271.042969 199.566406 268.695313 200.214844 266.320313 200.765625 C 270.011719 204.253906 273.546875 207.921875 277.460938 211.175781 C 280.820313 213.988281 284.152344 216.847656 287.578125 219.578125 C 297.523438 227.355469 304.78125 230.007813 316.789063 232.101563 C 314.0625 236.402344 310.867188 239.890625 306.535156 242.660156 C 298.574219 247.765625 287.121094 249.792969 277.105469 249.890625 C 263.683594 250.03125 254.957031 246.917969 247.089844 235.839844 C 246.332031 234.773438 245.601563 233.6875 244.863281 232.585938 C 243.984375 231.394531 243.179688 230.550781 242.066406 229.59375 C 239.738281 227.953125 237.148438 226.734375 234.421875 226.039063 C 233.5 229.007813 232.550781 231.964844 231.847656 234.992188 C 231.484375 236.898438 231.230469 238.738281 231.039063 240.648438 C 230.253906 250.421875 228.875 260.03125 226.316406 269.496094 C 224.675781 275.273438 222.648438 280.726563 219.8125 286.042969 C 218.503906 288.34375 217.054688 290.449219 215.476563 292.578125 C 213.570313 294.773438 211.707031 296.679688 209.523438 298.59375 L 205.476563 301.601563 C 201.300781 304.335938 196.945313 306.75 192.945313 309.746094 C 190.894531 311.464844 189.050781 313.371094 187.003906 315.097656 C 184.027344 317.441406 180.957031 319.324219 177.570313 321.019531 C 173.027344 323.164063 168.449219 324.71875 163.582031 325.914063 C 158.007813 327.15625 152.554688 327.804688 146.84375 327.875 C 143.152344 327.902344 139.519531 328.089844 135.851563 328.390625 C 122.007813 329.792969 108.5 333.175781 94.660156 334.496094 C 84.894531 335.25 74.621094 334.398438 66.75 332.648438 C 70.929688 329.03125 79.820313 323.132813 81.792969 317.890625 C 82.679688 315 82.546875 311.976563 82.554688 308.992188 C 82.597656 305.425781 82.832031 302.054688 83.90625 298.628906 C 78.199219 289.675781 79.542969 281.703125 86.289063 274.320313 C 81.84375 268.375 80.28125 264.15625 81.789063 258.835938 C 83.363281 253.300781 87.378906 248.839844 91.125 244.617188 C 93.648438 241.777344 96.308594 239.046875 99.003906 236.375 C 98.886719 236.179688 98.78125 235.992188 98.664063 235.789063 C 97.675781 233.589844 97.140625 231.613281 96.746094 229.253906 C 96.421875 226.714844 96.269531 224.160156 95.921875 221.628906 C 95.378906 218.496094 94.515625 216.214844 92.578125 213.675781 C 91.480469 212.421875 90.292969 211.253906 89.160156 210.050781 L 87.785156 208.140625 L 86.714844 206.171875 L 85.917969 204.191406 C 85.371094 202.304688 84.996094 200.546875 84.71875 198.617188 C 84.351563 195.132813 84.351563 191.523438 83.019531 188.253906 C 82.34375 187.019531 81.605469 185.832031 80.890625 184.625 C 79.128906 181.554688 77.542969 178.484375 76.195313 175.183594 C 75.636719 173.675781 75.148438 172.191406 74.730469 170.683594 C 74.089844 170.847656 73.457031 171.007813 72.824219 171.171875 C 63.511719 173.519531 54.160156 176.226563 44.515625 176.679688 C 42.722656 176.683594 41 176.621094 39.214844 176.464844 C 37.40625 176.199219 35.757813 175.839844 33.996094 175.335938 C 32.214844 174.664063 30.695313 173.933594 29.050781 172.964844 L 26.09375 170.585938 L 23.574219 167.589844 C 22.433594 165.761719 21.582031 164.074219 20.769531 162.078125 L 19.550781 157.792969 C 18.726563 153.273438 18.464844 148.871094 18.363281 144.304688 C 18.242188 133 19.167969 121.679688 22.210938 110.765625 C 23.242188 107.402344 24.429688 104.296875 26.023438 101.164063 C 32.035156 90.542969 40.144531 81.136719 48.847656 72.652344 C 50.597656 71.003906 52.351563 69.394531 54.144531 67.8125 C 59.355469 63.324219 64.730469 59.1875 70.410156 55.433594 C 70.714844 52.4375 71.152344 49.453125 71.828125 46.492188 C 72.292969 44.757813 72.820313 43.140625 73.476563 41.460938 C 74.273438 39.8125 75.070313 38.46875 76.171875 36.988281 C 82.609375 30.332031 92.03125 27.375 100.480469 24.125 C 104.648438 22.488281 108.757813 21.035156 113.113281 19.925781 C 127.847656 16.402344 137.941406 17.601563 145.800781 19.605469 C 153.785156 17.578125 161.90625 16.125 170.0625 14.90625 C 181.523438 13.179688 193.816406 11.140625 204.972656 15.363281 L 207.410156 16.503906 C 210.425781 18.242188 212.5625 20.113281 214.664063 22.898438 C 216.550781 25.835938 217.984375 29.113281 219.511719 32.242188 C 223.84375 41.210938 228.015625 50.289063 231.769531 59.53125 C 232.015625 59.5625 232.269531 59.605469 232.515625 59.640625 C 247.375 62.078125 262.25 64.84375 276.570313 69.527344 C 283.804688 71.886719 293.019531 75.101563 299.21875 79.46875 C 302.566406 81.832031 305.117188 84.957031 305.203125 89.613281 C 305.296875 94.925781 300.78125 99.414063 294.429688 103.347656 C 289.863281 105.917969 285.207031 107.96875 280.285156 109.734375 C 270.808594 113.03125 261.296875 116.246094 251.765625 119.394531 C 248.648438 120.414063 245.527344 121.417969 242.40625 122.425781 C 244.988281 121.589844 247.578125 120.761719 250.160156 119.921875 C 251.136719 131.375 248.320313 140.925781 245.394531 150.695313 C 244.480469 151.179688 243.574219 151.699219 242.671875 152.242188 C 245.183594 150.742188 247.6875 149.464844 250.429688 148.371094 L 253.570313 147.328125 C 258.570313 146 263.515625 145.410156 268.703125 145.636719 C 270.632813 145.765625 272.574219 145.929688 274.511719 146.085938 C 282.570313 146.753906 290.515625 147.226563 298.574219 146.101563 L 301.941406 145.410156 C 310.976563 142.863281 312.917969 138.605469 315.804688 131.796875 C 319.550781 133.496094 322.660156 135.15625 325.121094 137.355469 C 326.894531 138.949219 328.289063 140.734375 329.324219 142.628906 C 333.347656 150 331.902344 161.761719 324.726563 166.800781 M 337.261719 138.292969 C 335.691406 135.429688 333.640625 132.851563 331.160156 130.625 C 327.582031 127.425781 323.464844 125.335938 319.542969 123.554688 C 318.355469 123.019531 317.078125 122.746094 315.800781 122.746094 C 314.6875 122.746094 313.574219 122.953125 312.515625 123.363281 C 310.242188 124.25 308.421875 126.015625 307.472656 128.261719 C 304.996094 134.097656 304.507813 135.246094 299.777344 136.617188 L 297.039063 137.179688 C 294.277344 137.550781 291.347656 137.730469 288.09375 137.730469 C 283.8125 137.730469 279.390625 137.410156 275.253906 137.066406 L 274.460938 137.003906 C 272.734375 136.863281 271.007813 136.722656 269.289063 136.609375 C 268.234375 136.5625 267.375 136.542969 266.519531 136.542969 C 263.730469 136.542969 260.976563 136.742188 258.207031 137.144531 C 258.828125 133.730469 259.257813 130.160156 259.367188 126.402344 C 267.585938 123.664063 275.597656 120.941406 283.25 118.28125 C 289.011719 116.214844 294.089844 113.917969 298.859375 111.234375 C 298.96875 111.171875 299.082031 111.105469 299.1875 111.039063 C 302.964844 108.703125 314.460938 101.582031 314.242188 89.449219 C 314.15625 84.625 312.382813 77.691406 304.433594 72.078125 C 297.5 67.191406 288.289063 63.832031 279.367188 60.925781 C 266.441406 56.699219 253.402344 53.988281 238.191406 51.414063 C 235.242188 44.433594 231.832031 36.964844 227.652344 28.308594 L 226.734375 26.394531 C 225.425781 23.652344 224.074219 20.816406 222.265625 18.007813 C 222.144531 17.816406 222.015625 17.632813 221.882813 17.457031 C 219.074219 13.726563 216 11.015625 211.921875 8.664063 C 211.699219 8.535156 211.472656 8.417969 211.238281 8.308594 L 208.800781 7.167969 C 208.59375 7.070313 208.382813 6.984375 208.171875 6.902344 C 202.6875 4.828125 196.6875 3.820313 189.824219 3.820313 C 182.878906 3.820313 176.199219 4.828125 169.738281 5.804688 L 168.707031 5.960938 C 159.851563 7.28125 152.484375 8.671875 145.757813 10.292969 C 140.699219 9.164063 135.878906 8.632813 130.769531 8.632813 C 124.484375 8.632813 118.019531 9.449219 111.003906 11.125 C 106.6875 12.222656 102.464844 13.625 97.171875 15.699219 L 94.207031 16.820313 C 86.019531 19.894531 76.738281 23.378906 69.660156 30.703125 C 69.394531 30.976563 69.144531 31.269531 68.917969 31.574219 C 67.507813 33.460938 66.398438 35.296875 65.324219 37.519531 C 65.222656 37.734375 65.128906 37.949219 65.042969 38.167969 C 64.28125 40.113281 63.640625 42.070313 63.082031 44.144531 C 63.054688 44.257813 63.027344 44.367188 63 44.476563 C 62.582031 46.324219 62.222656 48.238281 61.925781 50.261719 C 57.351563 53.464844 52.84375 56.988281 48.234375 60.957031 C 46.289063 62.671875 44.460938 64.347656 42.640625 66.0625 C 31.867188 76.566406 23.890625 86.554688 18.140625 96.707031 C 18.078125 96.824219 18.011719 96.941406 17.953125 97.0625 C 16.21875 100.46875 14.820313 103.984375 13.550781 108.117188 C 10.527344 118.957031 9.164063 130.753906 9.308594 144.402344 C 9.40625 148.777344 9.636719 153.886719 10.640625 159.410156 C 10.695313 159.699219 10.761719 159.984375 10.839844 160.269531 L 12.058594 164.550781 C 12.148438 164.871094 12.257813 165.183594 12.382813 165.492188 C 13.414063 168.019531 14.496094 170.144531 15.890625 172.378906 C 16.117188 172.742188 16.367188 173.085938 16.640625 173.414063 L 19.164063 176.410156 C 19.542969 176.859375 19.960938 177.269531 20.417969 177.636719 L 23.375 180.015625 C 23.714844 180.289063 24.074219 180.535156 24.449219 180.757813 C 26.539063 181.992188 28.558594 182.957031 30.804688 183.800781 C 31.03125 183.886719 31.257813 183.964844 31.488281 184.03125 C 33.640625 184.648438 35.675781 185.089844 37.894531 185.414063 C 38.066406 185.4375 38.242188 185.460938 38.417969 185.476563 C 40.347656 185.644531 42.269531 185.726563 44.292969 185.726563 C 44.433594 185.726563 44.792969 185.722656 44.933594 185.71875 C 53.382813 185.320313 61.351563 183.4375 69.0625 181.472656 C 70.199219 183.960938 71.484375 186.421875 73.035156 189.128906 L 73.65625 190.167969 C 74.035156 190.796875 74.414063 191.421875 74.773438 192.058594 C 75.183594 193.332031 75.332031 195.152344 75.492188 197.074219 C 75.558594 197.90625 75.628906 198.742188 75.714844 199.566406 C 75.726563 199.679688 75.742188 199.792969 75.757813 199.90625 C 76.097656 202.285156 76.566406 204.449219 77.226563 206.71875 C 77.308594 207.007813 77.40625 207.289063 77.519531 207.566406 L 78.316406 209.546875 C 78.445313 209.867188 78.589844 210.175781 78.753906 210.476563 L 79.820313 212.449219 C 80.003906 212.792969 80.210938 213.121094 80.441406 213.4375 L 81.816406 215.34375 C 82.042969 215.660156 82.292969 215.960938 82.558594 216.246094 L 83.851563 217.59375 C 84.421875 218.183594 85 218.773438 85.550781 219.390625 C 86.339844 220.476563 86.671875 221.332031 86.972656 223.023438 C 87.132813 224.199219 87.242188 225.378906 87.355469 226.554688 C 87.476563 227.839844 87.601563 229.125 87.765625 230.40625 C 87.78125 230.515625 87.796875 230.628906 87.816406 230.738281 C 88.015625 231.929688 88.246094 233.042969 88.519531 234.113281 C 87 235.691406 85.632813 237.171875 84.351563 238.613281 L 84.148438 238.84375 C 80.15625 243.339844 75.191406 248.9375 73.078125 256.359375 C 71.117188 263.289063 72.628906 269.050781 75.273438 273.964844 C 70.320313 282.183594 69.957031 291.136719 74.269531 299.941406 C 73.664063 303.167969 73.53125 306.207031 73.5 308.882813 L 73.5 310.097656 C 73.507813 311.917969 73.515625 313.640625 73.238281 314.867188 C 72.152344 316.800781 67.097656 320.78125 64.632813 322.722656 C 63.191406 323.855469 61.871094 324.898438 60.820313 325.808594 C 58.238281 328.046875 57.132813 331.550781 57.972656 334.867188 C 58.808594 338.179688 61.445313 340.742188 64.78125 341.480469 C 71.5625 342.988281 79.570313 343.820313 87.324219 343.820313 C 90.050781 343.820313 92.75 343.71875 95.351563 343.515625 C 102.90625 342.796875 110.160156 341.539063 117.175781 340.320313 C 123.917969 339.152344 130.285156 338.046875 136.757813 337.394531 C 140.261719 337.105469 143.640625 336.949219 146.910156 336.921875 C 153.214844 336.847656 159.300781 336.132813 165.546875 334.742188 C 171.390625 333.308594 176.527344 331.511719 181.421875 329.203125 C 185.707031 327.0625 189.296875 324.804688 192.597656 322.207031 C 192.675781 322.140625 192.753906 322.078125 192.832031 322.011719 C 193.953125 321.066406 195.023438 320.078125 196.089844 319.082031 C 196.90625 318.324219 197.714844 317.5625 198.570313 316.835938 C 200.796875 315.183594 203.238281 313.675781 205.820313 312.078125 C 207.363281 311.125 208.90625 310.167969 210.421875 309.175781 C 210.574219 309.074219 210.722656 308.96875 210.871094 308.863281 L 214.914063 305.851563 C 215.109375 305.710938 215.296875 305.558594 215.476563 305.398438 C 217.878906 303.296875 220.050781 301.105469 222.300781 298.507813 C 222.453125 298.335938 222.597656 298.15625 222.734375 297.972656 C 224.796875 295.191406 226.320313 292.890625 227.671875 290.507813 C 230.734375 284.78125 233.03125 278.957031 235.011719 271.964844 C 237.484375 262.828125 239.117188 252.910156 240.039063 241.542969 C 248.867188 253.730469 259.734375 258.941406 276.257813 258.941406 L 277.195313 258.9375 C 285.042969 258.863281 299.941406 257.636719 311.414063 250.273438 C 316.574219 246.976563 320.832031 242.617188 324.425781 236.945313 C 326.042969 234.394531 326.28125 231.203125 325.058594 228.441406 C 323.835938 225.675781 321.316406 223.707031 318.335938 223.1875 C 308.140625 221.410156 302.082031 219.4375 293.144531 212.453125 C 290.746094 210.539063 288.332031 208.503906 285.917969 206.46875 L 283.464844 204.410156 C 283.863281 204.226563 284.253906 204.039063 284.648438 203.847656 C 284.742188 203.804688 284.835938 203.757813 284.929688 203.707031 C 289.152344 201.476563 292.875 199.042969 296.636719 196.039063 C 296.71875 195.972656 296.800781 195.90625 296.882813 195.835938 C 298.730469 194.25 300.457031 192.648438 302.160156 190.9375 C 302.234375 190.863281 302.304688 190.789063 302.375 190.714844 C 303.414063 189.597656 304.425781 188.425781 305.445313 187.242188 C 307.792969 184.515625 310.015625 181.929688 312.335938 180.574219 C 313.449219 180.15625 314.914063 179.847656 316.460938 179.519531 C 317.300781 179.34375 318.144531 179.164063 318.976563 178.964844 C 319.164063 178.921875 319.34375 178.875 319.527344 178.816406 C 323.566406 177.582031 326.875 176.328125 329.898438 174.21875 C 341.570313 166.023438 343.121094 149.03125 337.261719 138.292969 " stroke-width="1" class="fil1" />
    <path style="fill-rule:nonzero;fill-opacity:1;" d="M 213.042969 235.191406 C 201.480469 257.089844 185.453125 273.285156 162.445313 282.585938 C 158.109375 284.339844 145.394531 287.570313 139.566406 286.707031 C 134.574219 285.964844 135.328125 281.875 140.449219 281.6875 C 150.976563 281.300781 162.839844 277.144531 171.742188 271.734375 C 180.21875 266.582031 189.246094 257.378906 196.074219 248.734375 C 202.289063 240.855469 206.566406 233.414063 209.316406 230.378906 C 213.480469 225.789063 214.914063 231.65625 213.042969 235.191406 M 61.175781 90.375 C 57.171875 96.121094 48.28125 104.074219 44.492188 113.40625 C 42.539063 118.226563 42.894531 122.335938 42.34375 127.285156 C 42.140625 129.125 36.964844 123.246094 36.976563 119.28125 C 37.488281 109.546875 50.058594 94.007813 58.078125 85.203125 C 60.0625 83.363281 62.074219 81.367188 63.734375 81.226563 C 61.207031 85.335938 63.34375 86.921875 61.175781 90.375 M 58.546875 132.65625 C 63.058594 135.992188 69.929688 137.566406 76.386719 139.726563 C 67.136719 140.460938 58.386719 141.113281 53.167969 138.429688 C 50.832031 134.839844 53.398438 129.042969 55.011719 125.011719 C 55.84375 127.695313 56.605469 130.417969 58.546875 132.65625 M 67.886719 125.148438 C 73.828125 129.546875 82.882813 131.621094 91.382813 134.460938 C 79.203125 135.433594 69.566406 133.882813 62.6875 130.347656 C 59.609375 125.621094 61.09375 120.382813 63.230469 115.082031 C 64.320313 118.617188 65.324219 122.199219 67.886719 125.148438 M 91.933594 44.574219 C 94.21875 48.308594 95.042969 51.09375 97.703125 51.328125 C 103.144531 51.8125 110.554688 45.816406 113.902344 44.832031 C 112.539063 50.0625 104.042969 55.625 95.625 57.757813 C 91.957031 56.570313 91.828125 49.0625 91.933594 44.574219 M 179.179688 161.160156 C 181.355469 164.347656 184.257813 173.1875 179.910156 179.289063 C 176.753906 183.71875 173.359375 186.980469 172.804688 192.941406 C 172.609375 195.015625 173.433594 200.347656 172.464844 203.714844 C 171.542969 206.886719 170.625 207.292969 168.617188 204.671875 C 167.929688 203.773438 166.488281 197.632813 166.234375 196.179688 C 165.859375 193.960938 165.792969 191.53125 166.066406 189.476563 C 167.144531 181.25 176.5625 174.375 173.230469 167.261719 C 172.472656 165.632813 169.746094 163.046875 168.984375 161.652344 C 167.238281 158.445313 169.746094 155.132813 173.105469 155.609375 C 175.710938 155.980469 177.363281 158.492188 179.179688 161.160156 M 317.503906 157.839844 C 315.140625 158.933594 312.441406 155.585938 309.910156 156.117188 C 307.621094 156.640625 305.609375 161.082031 303.453125 162.007813 L 300.824219 163.546875 C 290.160156 168.945313 276.058594 168.964844 265.910156 167.191406 C 258.226563 165.84375 247.953125 168.226563 244.703125 176.019531 C 243.390625 174.230469 242.035156 172.546875 240.554688 170.851563 L 238.839844 169.296875 C 243.128906 165.875 247.410156 162.449219 252.355469 160.042969 L 254.492188 159.144531 C 259.316406 157.429688 264.109375 156.875 269.21875 157.207031 C 271.828125 157.40625 274.4375 157.636719 277.054688 157.839844 C 284.152344 158.347656 291.070313 158.515625 298.171875 157.777344 L 302.597656 157.070313 C 308.8125 155.65625 314.929688 153.414063 319.230469 148.449219 C 320.585938 151.449219 320.363281 155.808594 317.503906 157.839844 M 286.214844 177.820313 C 283.726563 180.128906 281.203125 182.085938 278.320313 183.886719 C 275.492188 185.515625 272.699219 186.796875 269.644531 187.910156 C 263.273438 190.003906 258.667969 190.761719 252.996094 191.066406 C 252.605469 190.882813 252.207031 190.703125 251.808594 190.527344 C 251.476563 188.875 250.933594 187.1875 250.191406 185.492188 C 253.230469 179.628906 258.980469 173.335938 268.070313 173.890625 C 275.285156 174.328125 282.054688 175.09375 290.886719 172.734375 C 289.363281 174.460938 287.851563 176.183594 286.214844 177.820313 M 269.078125 219.167969 C 276.152344 225.054688 282.953125 231.160156 290.898438 235.867188 L 292.121094 236.546875 C 290.316406 236.980469 288.488281 237.296875 286.648438 237.574219 C 280.320313 238.453125 273.808594 238.914063 267.503906 237.628906 C 266.007813 237.191406 264.742188 236.722656 263.34375 236.035156 C 261.308594 234.792969 259.898438 233.480469 258.328125 231.679688 C 255.261719 227.4375 252.609375 223.890625 249.554688 221.113281 C 256.476563 220.089844 264.480469 223.601563 269.242188 227.820313 C 261.46875 212.484375 247.199219 211.253906 237.726563 214.925781 C 237.519531 214.878906 237.320313 214.832031 237.109375 214.789063 C 237.3125 213.304688 237.464844 211.816406 237.550781 210.296875 C 239.925781 209.847656 242.109375 208.945313 244.726563 207.070313 C 246.511719 205.789063 247.9375 204.425781 249.054688 202.984375 C 249.613281 202.957031 250.175781 202.925781 250.734375 202.886719 C 252.882813 204.25 254.871094 205.910156 256.726563 207.535156 C 260.921875 211.332031 264.789063 215.484375 269.078125 219.167969 M 224.828125 177.785156 C 224.539063 177.464844 224.316406 177.101563 224.183594 176.726563 L 225.707031 174.964844 L 226.65625 173.632813 C 232.308594 172.703125 239.109375 184.824219 240.921875 188.253906 C 238.027344 187.976563 235.976563 190.625 236.777344 194.601563 C 232.84375 186.050781 229.691406 183.117188 224.828125 177.785156 M 226.394531 215.382813 C 225.320313 220.621094 222.441406 225.390625 221.066406 230.535156 L 220.160156 234.832031 C 219.511719 239.300781 219.246094 243.824219 218.714844 248.300781 C 217.375 258.613281 215.300781 268.984375 210.800781 278.417969 C 209.207031 281.585938 207.421875 284.292969 205.101563 286.976563 L 202.175781 289.726563 C 198.265625 292.78125 193.996094 295.167969 189.828125 297.835938 L 185.792969 300.71875 C 184.167969 302.082031 182.648438 303.46875 181.128906 304.945313 C 177.933594 307.859375 174.355469 309.898438 170.410156 311.636719 C 164.859375 313.941406 159.238281 315.308594 153.277344 316.003906 C 148.683594 316.457031 144.082031 316.351563 139.472656 316.578125 C 134.15625 316.9375 128.945313 317.546875 123.6875 318.34375 C 113.164063 320.019531 102.726563 322.324219 92.089844 323.144531 C 94.25 318.46875 94.027344 313.164063 94.074219 308.144531 C 94.121094 306.230469 94.257813 304.453125 94.726563 302.601563 C 94.8125 302.308594 94.90625 302.035156 95.003906 301.761719 C 96.011719 305.464844 99.242188 309.484375 103.726563 310.441406 C 111.496094 312.09375 115.765625 309.597656 126.308594 309.011719 C 135.375 308.511719 136.292969 309.320313 141.605469 309.875 C 152.644531 311.015625 172.839844 305.164063 180.21875 297.273438 C 181.792969 295.585938 182.789063 294.0625 182.152344 293.113281 C 180.367188 290.421875 171.042969 296.902344 169.355469 297.683594 C 157.476563 303.835938 151.191406 304.121094 143.699219 303.082031 C 137.347656 303.082031 133.832031 302.835938 131.664063 307.582031 C 127.382813 303.289063 121.925781 303.382813 115.945313 304.242188 C 111.34375 304.90625 106.578125 304.945313 102.097656 302.292969 C 97.921875 299.824219 94.625 295.246094 92.820313 290.800781 C 90.3125 284.621094 95.003906 281.003906 100.96875 281.003906 C 105.082031 281.003906 109.257813 283.125 113.148438 284.210938 C 116.925781 285.300781 120.242188 281.800781 114.867188 278.660156 C 112.007813 276.535156 108.800781 274.878906 106.167969 271.261719 C 104.222656 268.085938 102.140625 264.792969 102.476563 259.175781 C 100.746094 258.710938 98.460938 262.746094 97.988281 265.59375 C 97.644531 267.789063 97.6875 269.828125 98.164063 271.875 C 96.027344 269.371094 94.386719 266.839844 93.410156 264.285156 C 91.601563 260.585938 94.875 258.078125 97.140625 255.28125 C 100.511719 251.328125 104.070313 247.492188 107.785156 243.835938 C 112.050781 245.640625 116.648438 246.640625 121.21875 247.359375 C 122.425781 247.527344 123.605469 247.660156 124.796875 247.757813 L 124.390625 248.863281 L 123.769531 251.929688 L 123.648438 255.011719 L 124.089844 258.035156 L 125.113281 260.929688 L 126.761719 263.558594 L 128.988281 265.78125 L 131.679688 267.476563 L 134.71875 268.566406 L 137.988281 269.070313 L 141.433594 269.007813 L 145.023438 268.40625 L 148.636719 267.320313 C 152.054688 266.046875 155.3125 264.5625 158.539063 262.84375 C 166.21875 258.621094 173.195313 253.042969 179.761719 247.261719 C 182.226563 245.035156 184.632813 242.761719 186.996094 240.421875 C 198.597656 228.695313 208.972656 215.5625 218.261719 201.9375 C 219.992188 199.347656 221.71875 196.726563 223.300781 194.03125 C 229.035156 200.097656 227.449219 208.828125 226.394531 215.382813 M 97.550781 202.007813 C 96.019531 199.179688 96.007813 195.878906 95.722656 192.75 C 95.523438 190.890625 95.242188 189.128906 94.847656 187.3125 L 93.433594 183.308594 L 92.429688 181.464844 C 91.167969 179.40625 88.816406 174.183594 87.730469 172.078125 C 92.726563 169.117188 94.679688 165.195313 98.601563 164.472656 C 98.324219 169.792969 98.660156 177.574219 99.53125 183.714844 C 100.773438 192.503906 104.375 199.058594 113.941406 194.632813 C 116.859375 201.300781 107.425781 204.464844 104.699219 211.4375 C 104.378906 210.773438 104.042969 210.128906 103.667969 209.457031 C 102.582031 207.800781 101.484375 206.371094 100.191406 204.890625 C 99.246094 203.953125 98.324219 203.078125 97.550781 202.007813 M 84.683594 154.117188 L 75.476563 158.605469 C 71.308594 159.671875 67.136719 160.734375 62.960938 161.785156 C 57.214844 163.226563 51.488281 164.621094 45.554688 165.101563 C 41.457031 165.296875 37.375 165.203125 34.152344 162.351563 C 30.398438 158.296875 30.195313 152.171875 29.949219 146.941406 C 29.84375 143.941406 29.839844 140.96875 29.910156 137.976563 C 30.273438 128.179688 31.328125 117.925781 35.113281 108.804688 C 35.933594 106.996094 36.859375 105.410156 37.898438 103.71875 C 41.257813 98.550781 44.90625 93.78125 48.941406 89.140625 C 52.488281 85.203125 56.167969 81.511719 60.070313 77.9375 C 63.222656 75.144531 66.449219 72.472656 69.785156 69.960938 C 69.757813 71.496094 69.746094 73.035156 69.722656 74.574219 C 69.609375 83.011719 69.640625 91.4375 69.914063 99.867188 C 69.289063 100.5 68.890625 101.511719 68.789063 103.136719 C 68.371094 109.582031 68.570313 119.632813 70.84375 123.566406 C 79.398438 128.5 93.328125 129.101563 100.003906 129.65625 C 112.050781 130.664063 127.671875 129.234375 141.800781 126.417969 C 122.933594 136.027344 103.929688 145.3125 84.683594 154.117188 M 81.214844 76.179688 C 81.308594 68.152344 81.1875 60.03125 82.425781 52.082031 C 82.882813 49.605469 83.414063 46.527344 84.957031 44.457031 C 86.109375 43.261719 87.691406 42.320313 89.109375 41.453125 C 94.527344 38.460938 100.40625 36.53125 106.15625 34.261719 C 110.957031 32.402344 115.699219 30.949219 120.792969 30.113281 C 122.828125 29.824219 124.832031 29.636719 126.855469 29.550781 C 122.570313 33.0625 119.570313 37.140625 117.476563 41.679688 C 126.488281 37.785156 133.546875 34.804688 146.261719 31.355469 C 146.273438 31.359375 146.292969 31.359375 146.3125 31.359375 C 152.199219 29.847656 158.085938 28.5625 164.082031 27.523438 C 170.433594 26.433594 176.875 25.402344 183.292969 24.738281 C 188.582031 24.273438 193.964844 24.074219 199.140625 25.503906 C 201.878906 26.390625 203.957031 27.535156 205.546875 30.003906 C 206.234375 31.257813 206.847656 32.554688 207.476563 33.832031 C 210.457031 39.914063 213.351563 46.03125 216.121094 52.207031 C 220.476563 62.039063 224.605469 72.015625 227.828125 82.289063 C 225.835938 83.222656 223.816406 84.140625 221.761719 85.039063 C 215.234375 68.714844 209.078125 51.195313 200.617188 35.988281 C 196.425781 28.464844 190.960938 27.898438 183.777344 29.859375 C 173.960938 32.542969 162.320313 37.019531 157.375 39.667969 C 153.445313 41.765625 150.828125 44.683594 151.636719 45.378906 C 152.210938 45.875 153.9375 45.234375 154.820313 45.003906 C 163.398438 42.742188 173.847656 38.59375 184.101563 36.96875 C 192.328125 35.671875 193.820313 37.164063 197.554688 45.1875 C 204.117188 59.28125 208.515625 73.789063 214.460938 88.074219 C 194.121094 96.097656 170.15625 101.996094 139.863281 104.203125 C 137.539063 104.367188 135.273438 104.5 133.066406 104.613281 C 116.839844 106.300781 132.984375 96.132813 144.753906 88.875 C 111.808594 92.179688 123.644531 84.582031 137.460938 79.039063 C 130.523438 75.308594 117.332031 82.210938 108.597656 90.9375 C 104.0625 95.476563 101.246094 100.585938 96.667969 103.613281 C 91.074219 102.875 86.03125 101.855469 81.453125 100.570313 C 81.160156 92.433594 81.136719 84.308594 81.214844 76.179688 M 145.34375 256.257813 C 145.21875 256.304688 145.089844 256.355469 144.964844 256.402344 L 142.40625 257.175781 C 140.234375 257.539063 137.550781 258.074219 135.824219 256.347656 C 133.992188 253.417969 136.457031 249.503906 138.128906 247.089844 L 138.179688 247.042969 C 138.339844 247 138.511719 246.957031 138.679688 246.914063 C 141.554688 249.71875 141.519531 255.09375 145.34375 256.257813 M 151.125 241.769531 C 154.09375 240.691406 163.199219 237.320313 166.046875 235.960938 C 174.679688 231.851563 182.730469 226.519531 189.929688 220.1875 C 186.386719 224.355469 182.707031 228.390625 178.859375 232.277344 C 175.722656 235.386719 172.476563 238.390625 169.117188 241.242188 C 164.171875 245.433594 159.214844 248.492188 153.917969 252.128906 C 153.261719 250.121094 154.515625 247.332031 159.957031 242.828125 C 155.546875 243.492188 151.925781 243.605469 151.125 241.769531 M 202.765625 168.386719 C 197.820313 166.082031 195.882813 175.242188 195.84375 178.1875 C 195.65625 185.136719 194.820313 191.859375 192.234375 198.363281 C 191.210938 200.753906 190.027344 202.898438 188.566406 204.917969 C 189.75 201.605469 190.78125 198.511719 191.75 194.417969 C 192.867188 189.667969 193.199219 181.761719 192.691406 176.777344 C 192.519531 175.113281 191.597656 172.484375 188.957031 174.460938 C 187.167969 175.8125 186.679688 178.21875 186.554688 181.363281 C 186.082031 192.769531 185.308594 201.367188 180.386719 209.449219 C 174.820313 218.582031 167.402344 222.878906 157.832031 227.011719 C 157.21875 225.148438 154.914063 223.042969 153.695313 224.703125 C 154.367188 226.476563 152.050781 228.847656 149.617188 230.046875 C 143.164063 233.96875 147.898438 223.359375 142.203125 225.558594 C 143.320313 229.460938 139.515625 232.121094 137.3125 235.339844 C 133.222656 236.660156 128.675781 236.722656 124.257813 236.175781 C 122.75 233.128906 119.230469 230.300781 116.316406 230.300781 C 114.601563 230.300781 115.121094 232.539063 115.695313 234.425781 C 113.554688 233.835938 111.34375 233.171875 109.699219 231.640625 C 108.09375 229.820313 108.039063 227.027344 107.839844 224.734375 C 107.558594 221.589844 107.175781 218.640625 106.355469 215.589844 C 106.152344 214.945313 105.929688 214.324219 105.691406 213.722656 C 105.84375 213.597656 105.996094 213.472656 106.152344 213.34375 C 107.78125 215.027344 111.066406 217.089844 111.066406 219.667969 C 111.066406 219.667969 110.375 225.9375 113.15625 223.144531 C 117.335938 218.964844 123.878906 222.871094 129.035156 222.871094 C 137.246094 222.871094 127.710938 219.816406 127.359375 218.265625 C 126.9375 216.367188 127.921875 215.203125 125.410156 215.203125 C 121.363281 215.203125 111.105469 218.464844 110.367188 210.613281 C 116.949219 205.984375 124.917969 202.863281 136.113281 208.339844 C 135.75 207.65625 134.519531 205.675781 133.964844 204.828125 C 138.863281 203.296875 147.507813 202.039063 150.488281 208.195313 C 152.398438 212.136719 152.296875 216.375 158.726563 216.375 C 154.136719 212.699219 157.605469 202.183594 151.789063 199.429688 C 145.976563 196.675781 139.207031 199.84375 133.964844 202.6875 C 131.160156 198.242188 123.769531 198.214844 119.15625 200.433594 C 120.875 195.84375 119.464844 194.730469 117.082031 192.910156 C 117.402344 192.710938 117.726563 192.503906 118.058594 192.289063 C 122.484375 189.320313 133.285156 190.027344 137.332031 186.382813 C 138.984375 187.71875 140.503906 189.335938 141.976563 190.800781 C 142.363281 191.195313 144.390625 193.183594 146.089844 194.46875 C 149.441406 196.992188 149.449219 193.867188 147.984375 191.628906 C 145.304688 187.5625 142.011719 183.714844 138.175781 179.96875 C 137.414063 177.140625 135.371094 175.363281 133.0625 174.351563 C 129.761719 172.914063 123.449219 172.5625 120.382813 174.75 C 119.410156 175.445313 118.746094 176.730469 119.023438 177.71875 C 119.453125 179.234375 121.8125 179.3125 123.023438 179.144531 C 124.332031 178.96875 125.960938 178.734375 127.800781 179.664063 C 129.675781 180.601563 131.101563 182.304688 130.296875 183.101563 C 128.667969 184.734375 122.492188 183.039063 118.414063 185.5 C 113.511719 188.46875 109.144531 187.183594 106.777344 184.820313 C 102.871094 180.910156 103.402344 169.769531 104.613281 162.863281 C 112.171875 160.839844 118.398438 159.148438 125.992188 157.054688 C 132.34375 159.617188 138.898438 165.710938 143.253906 161.347656 C 146.214844 158.378906 154.027344 151.847656 158.867188 147.777344 C 169.132813 144.820313 179.332031 141.828125 189.410156 138.8125 C 195.648438 142.257813 190.726563 150.539063 193.417969 156.167969 C 195.015625 159.515625 200.023438 159.363281 203.652344 158.398438 C 210.292969 156.632813 209.949219 151.921875 210.492188 145.050781 C 212.195313 135.542969 219.722656 139.789063 220.722656 149.71875 C 221.066406 153.167969 220.90625 156.691406 220.332031 160.035156 C 219.703125 162.453125 218.902344 164.996094 217.308594 166.945313 C 209.503906 176.539063 208.160156 170.902344 202.765625 168.386719 M 244.558594 93.859375 C 248.152344 93.292969 251.707031 92.855469 255.34375 92.554688 C 260.816406 92.230469 266.183594 92.230469 271.667969 92.488281 C 276.964844 92.832031 282.199219 93.386719 287.4375 94.082031 C 284.347656 95.8125 281.035156 97.175781 277.742188 98.417969 C 265.960938 102.652344 254.023438 106.542969 242.128906 110.441406 C 206.714844 121.90625 171.039063 132.625 135.175781 142.632813 C 149.417969 135.480469 163.566406 128.164063 177.75 120.871094 C 189.066406 115.066406 200.40625 109.246094 212.027344 104.039063 C 217.167969 101.851563 222.308594 99.859375 227.613281 98.074219 C 233.226563 96.324219 238.769531 94.917969 244.558594 93.859375 M 240.699219 72.738281 L 243.613281 73.28125 C 253.648438 75.183594 263.542969 77.359375 273.277344 80.519531 C 274.074219 80.792969 274.851563 81.0625 275.644531 81.339844 L 260.429688 80.792969 C 255.429688 80.96875 250.566406 81.378906 245.613281 82.035156 C 243.746094 82.332031 241.894531 82.65625 240.046875 83.019531 C 239.777344 82.046875 239.5 81.078125 239.214844 80.109375 C 238.359375 77.382813 237.453125 74.675781 236.5 71.980469 C 237.90625 72.21875 239.304688 72.480469 240.699219 72.738281 M 227.9375 134.246094 L 229.246094 136.691406 L 229.335938 136.917969 L 229.246094 136.695313 L 227.9375 134.25 L 227.476563 133.628906 Z M 232.394531 152.6875 C 232.386719 154.777344 232.246094 156.792969 232.0625 158.84375 C 232.246094 156.792969 232.386719 154.78125 232.390625 152.683594 L 232.117188 148.695313 Z M 329.324219 142.628906 C 328.285156 140.734375 326.894531 138.949219 325.121094 137.355469 C 322.660156 135.15625 319.554688 133.496094 315.808594 131.796875 C 312.917969 138.605469 310.976563 142.863281 301.941406 145.410156 L 298.574219 146.101563 C 290.515625 147.226563 282.570313 146.753906 274.511719 146.085938 C 272.574219 145.929688 270.632813 145.765625 268.703125 145.636719 C 263.515625 145.410156 258.570313 146 253.566406 147.328125 L 250.433594 148.371094 C 247.6875 149.464844 245.183594 150.742188 242.671875 152.242188 C 243.574219 151.699219 244.480469 151.179688 245.394531 150.695313 C 248.320313 140.925781 251.136719 131.375 250.160156 119.921875 C 240.835938 122.960938 231.496094 125.945313 222.144531 128.882813 L 222.140625 128.882813 C 232.035156 125.78125 241.914063 122.621094 251.765625 119.394531 C 261.296875 116.246094 270.808594 113.03125 280.285156 109.734375 C 285.207031 107.96875 289.863281 105.917969 294.429688 103.347656 C 300.78125 99.414063 305.300781 94.925781 305.203125 89.613281 C 305.117188 84.957031 302.566406 81.832031 299.21875 79.46875 C 293.019531 75.101563 283.808594 71.886719 276.566406 69.527344 C 262.25 64.84375 247.375 62.078125 232.515625 59.640625 C 232.269531 59.605469 232.015625 59.5625 231.769531 59.53125 C 228.015625 50.289063 223.84375 41.210938 219.511719 32.242188 C 217.984375 29.113281 216.550781 25.835938 214.660156 22.898438 C 212.5625 20.113281 210.429688 18.242188 207.410156 16.503906 L 204.976563 15.363281 C 193.816406 11.140625 181.523438 13.179688 170.0625 14.90625 C 161.90625 16.125 153.785156 17.578125 145.800781 19.605469 C 137.941406 17.601563 127.847656 16.402344 113.113281 19.925781 C 108.757813 21.035156 104.648438 22.488281 100.480469 24.125 C 92.03125 27.375 82.609375 30.332031 76.171875 36.988281 C 75.066406 38.46875 74.273438 39.8125 73.476563 41.460938 C 72.816406 43.140625 72.292969 44.757813 71.828125 46.492188 C 71.152344 49.453125 70.714844 52.4375 70.410156 55.433594 C 64.730469 59.1875 59.355469 63.324219 54.144531 67.8125 C 52.351563 69.394531 50.597656 71.003906 48.847656 72.652344 C 40.144531 81.136719 32.035156 90.542969 26.023438 101.164063 C 24.429688 104.296875 23.242188 107.402344 22.210938 110.765625 C 19.167969 121.679688 18.238281 133 18.359375 144.304688 C 18.464844 148.871094 18.730469 153.277344 19.550781 157.792969 L 20.769531 162.078125 C 21.582031 164.074219 22.433594 165.761719 23.574219 167.589844 L 26.09375 170.585938 L 29.050781 172.964844 C 30.695313 173.933594 32.21875 174.664063 33.996094 175.335938 C 35.757813 175.839844 37.402344 176.199219 39.214844 176.464844 C 41 176.621094 42.726563 176.683594 44.515625 176.679688 C 54.160156 176.226563 63.511719 173.519531 72.824219 171.171875 C 73.457031 171.007813 74.089844 170.847656 74.730469 170.683594 C 75.148438 172.191406 75.636719 173.675781 76.195313 175.183594 C 77.542969 178.484375 79.128906 181.554688 80.890625 184.625 C 81.605469 185.832031 82.34375 187.019531 83.019531 188.253906 C 84.351563 191.523438 84.351563 195.132813 84.71875 198.617188 C 84.996094 200.546875 85.371094 202.304688 85.917969 204.191406 L 86.714844 206.171875 L 87.785156 208.140625 L 89.160156 210.046875 C 90.292969 211.253906 91.480469 212.421875 92.578125 213.671875 C 94.515625 216.214844 95.378906 218.496094 95.921875 221.628906 C 96.269531 224.160156 96.421875 226.714844 96.746094 229.253906 C 97.140625 231.613281 97.675781 233.589844 98.664063 235.789063 C 98.78125 235.992188 98.890625 236.179688 99.003906 236.375 C 96.308594 239.046875 93.648438 241.777344 91.125 244.617188 C 87.378906 248.839844 83.363281 253.296875 81.789063 258.835938 C 80.28125 264.15625 81.84375 268.375 86.289063 274.320313 C 79.542969 281.703125 78.199219 289.675781 83.90625 298.628906 C 82.832031 302.054688 82.597656 305.425781 82.554688 308.992188 C 82.546875 311.976563 82.679688 315 81.792969 317.890625 C 79.820313 323.132813 70.929688 329.03125 66.75 332.652344 C 74.621094 334.398438 84.894531 335.25 94.660156 334.496094 C 108.496094 333.175781 122.011719 329.792969 135.855469 328.390625 C 139.519531 328.089844 143.152344 327.902344 146.84375 327.875 C 152.554688 327.804688 158.007813 327.15625 163.582031 325.914063 C 168.449219 324.71875 173.027344 323.164063 177.570313 321.019531 C 180.953125 319.324219 184.023438 317.445313 187.003906 315.097656 C 189.050781 313.371094 190.894531 311.464844 192.945313 309.746094 C 196.945313 306.75 201.300781 304.335938 205.476563 301.601563 L 209.523438 298.59375 C 211.707031 296.679688 213.570313 294.777344 215.476563 292.578125 C 217.058594 290.449219 218.503906 288.34375 219.8125 286.042969 C 222.648438 280.726563 224.675781 275.273438 226.316406 269.496094 C 228.871094 260.03125 230.253906 250.421875 231.039063 240.648438 C 231.230469 238.738281 231.484375 236.898438 231.847656 234.992188 C 232.554688 231.964844 233.5 229.007813 234.421875 226.039063 C 237.148438 226.734375 239.738281 227.953125 242.066406 229.59375 C 243.183594 230.550781 243.984375 231.394531 244.863281 232.585938 C 245.601563 233.6875 246.328125 234.773438 247.089844 235.839844 C 254.957031 246.917969 263.683594 250.03125 277.105469 249.890625 C 287.117188 249.792969 298.574219 247.765625 306.535156 242.660156 C 310.867188 239.890625 314.0625 236.402344 316.789063 232.101563 C 304.78125 230.007813 297.523438 227.355469 287.578125 219.578125 C 284.152344 216.847656 280.820313 213.988281 277.460938 211.175781 C 273.546875 207.921875 270.011719 204.253906 266.320313 200.765625 C 268.695313 200.214844 271.042969 199.566406 273.40625 198.789063 C 275.917969 197.871094 278.304688 196.871094 280.714844 195.707031 C 284.429688 193.746094 287.710938 191.589844 290.996094 188.964844 C 292.648438 187.550781 294.21875 186.09375 295.757813 184.550781 C 299.699219 180.308594 303.21875 175.167969 308.4375 172.398438 C 311.121094 171.246094 314.050781 170.839844 316.886719 170.164063 C 320.082031 169.1875 322.636719 168.257813 324.730469 166.800781 C 331.898438 161.761719 333.347656 150 329.324219 142.628906 " stroke-width="1" class="fil2" />
    <path style="fill-rule:nonzero;fill-opacity:1;" d="M 95.625 57.757813 C 91.957031 56.570313 91.828125 49.0625 91.933594 44.574219 C 94.21875 48.308594 95.046875 51.09375 97.703125 51.328125 C 103.144531 51.8125 110.554688 45.816406 113.902344 44.832031 C 112.539063 50.0625 104.046875 55.625 95.625 57.757813 M 157.375 39.667969 C 162.320313 37.019531 173.960938 32.542969 183.777344 29.859375 C 190.960938 27.898438 196.425781 28.464844 200.617188 35.988281 C 209.078125 51.195313 215.234375 68.71875 221.761719 85.039063 C 223.816406 84.140625 225.835938 83.222656 227.828125 82.289063 C 224.605469 72.015625 220.476563 62.039063 216.121094 52.207031 C 213.351563 46.03125 210.457031 39.914063 207.476563 33.832031 C 206.847656 32.554688 206.234375 31.257813 205.546875 30.003906 C 203.960938 27.535156 201.878906 26.390625 199.140625 25.503906 C 193.964844 24.074219 188.585938 24.273438 183.292969 24.738281 C 176.875 25.402344 170.433594 26.433594 164.082031 27.523438 C 158.085938 28.5625 152.199219 29.847656 146.3125 31.359375 C 146.292969 31.359375 146.273438 31.359375 146.261719 31.355469 C 133.546875 34.804688 126.488281 37.785156 117.476563 41.679688 C 119.570313 37.140625 122.570313 33.0625 126.855469 29.550781 C 124.832031 29.636719 122.828125 29.820313 120.796875 30.113281 C 115.699219 30.949219 110.957031 32.402344 106.15625 34.261719 C 100.40625 36.53125 94.527344 38.460938 89.109375 41.453125 C 87.691406 42.320313 86.109375 43.261719 84.960938 44.457031 C 83.414063 46.523438 82.882813 49.609375 82.425781 52.082031 C 81.1875 60.03125 81.308594 68.148438 81.214844 76.179688 C 81.136719 84.308594 81.160156 92.433594 81.453125 100.570313 C 86.03125 101.855469 91.074219 102.875 96.667969 103.613281 C 101.246094 100.582031 104.0625 95.476563 108.597656 90.9375 C 117.332031 82.210938 130.523438 75.308594 137.460938 79.039063 C 123.644531 84.582031 111.808594 92.183594 144.753906 88.875 C 132.984375 96.132813 116.839844 106.300781 133.0625 104.613281 C 135.273438 104.5 137.539063 104.367188 139.863281 104.203125 C 170.15625 101.996094 194.121094 96.097656 214.460938 88.074219 C 208.515625 73.789063 204.117188 59.28125 197.554688 45.1875 C 193.820313 37.164063 192.328125 35.671875 184.101563 36.96875 C 173.847656 38.59375 163.398438 42.742188 154.820313 45.003906 C 153.9375 45.234375 152.210938 45.875 151.636719 45.378906 C 150.828125 44.6875 153.445313 41.765625 157.375 39.667969 " stroke-width="1" class="fil3" />
    <path style="fill-rule:nonzero;fill-opacity:1;" d="M 240.046875 83.019531 C 241.894531 82.65625 243.746094 82.332031 245.613281 82.035156 C 250.566406 81.378906 255.429688 80.96875 260.429688 80.792969 L 275.644531 81.339844 C 274.851563 81.0625 274.074219 80.792969 273.277344 80.519531 C 263.542969 77.359375 253.648438 75.183594 243.613281 73.28125 L 240.699219 72.738281 C 239.304688 72.480469 237.90625 72.222656 236.5 71.980469 C 237.453125 74.675781 238.359375 77.382813 239.214844 80.109375 C 239.5 81.074219 239.777344 82.046875 240.046875 83.019531 " stroke-width="1" class="fil3" />
    <path style="fill-rule:nonzero;fill-opacity:1;" d="M 271.667969 92.488281 C 266.183594 92.230469 260.816406 92.230469 255.34375 92.554688 C 251.707031 92.855469 248.152344 93.289063 244.558594 93.859375 C 238.769531 94.917969 233.226563 96.324219 227.613281 98.074219 C 222.308594 99.859375 217.167969 101.851563 212.027344 104.039063 C 200.40625 109.246094 189.0625 115.066406 177.75 120.867188 C 163.566406 128.160156 149.417969 135.480469 135.175781 142.632813 C 171.039063 132.625 206.714844 121.90625 242.128906 110.441406 C 254.023438 106.542969 265.960938 102.652344 277.742188 98.417969 C 281.035156 97.175781 284.347656 95.8125 287.4375 94.082031 C 282.199219 93.386719 276.964844 92.832031 271.667969 92.488281 " stroke-width="1" class="fil3" />
    <path style="fill-rule:nonzero;fill-opacity:1;" d="M 62.6875 130.347656 C 59.613281 125.617188 61.09375 120.382813 63.230469 115.082031 C 64.324219 118.617188 65.324219 122.199219 67.886719 125.148438 C 73.828125 129.546875 82.882813 131.621094 91.382813 134.460938 C 79.203125 135.433594 69.566406 133.882813 62.6875 130.347656 M 53.167969 138.429688 C 50.832031 134.839844 53.398438 129.042969 55.011719 125.011719 C 55.84375 127.695313 56.605469 130.417969 58.546875 132.65625 C 63.058594 135.992188 69.929688 137.566406 76.382813 139.726563 C 67.136719 140.460938 58.382813 141.113281 53.167969 138.429688 M 44.492188 113.40625 C 42.539063 118.226563 42.894531 122.335938 42.34375 127.285156 C 42.140625 129.125 36.964844 123.246094 36.976563 119.28125 C 37.488281 109.546875 50.058594 94.007813 58.078125 85.199219 C 60.0625 83.363281 62.078125 81.363281 63.734375 81.226563 C 61.207031 85.335938 63.34375 86.921875 61.175781 90.375 C 57.171875 96.117188 48.28125 104.074219 44.492188 113.40625 M 100.003906 129.65625 C 93.328125 129.101563 79.398438 128.5 70.84375 123.566406 C 68.570313 119.632813 68.371094 109.582031 68.789063 103.136719 C 68.890625 101.511719 69.289063 100.5 69.917969 99.867188 C 69.640625 91.4375 69.609375 83.011719 69.722656 74.574219 C 69.746094 73.035156 69.757813 71.496094 69.785156 69.960938 C 66.449219 72.472656 63.21875 75.144531 60.074219 77.9375 C 56.167969 81.511719 52.488281 85.203125 48.941406 89.140625 C 44.90625 93.777344 41.257813 98.550781 37.898438 103.71875 C 36.859375 105.410156 35.933594 106.996094 35.113281 108.804688 C 31.328125 117.925781 30.273438 128.179688 29.914063 137.976563 C 29.839844 140.96875 29.84375 143.941406 29.949219 146.941406 C 30.195313 152.171875 30.402344 158.296875 34.152344 162.351563 C 37.375 165.203125 41.457031 165.296875 45.550781 165.101563 C 51.488281 164.617188 57.210938 163.226563 62.960938 161.785156 C 67.136719 160.734375 71.308594 159.671875 75.476563 158.605469 L 84.683594 154.117188 C 103.929688 145.3125 122.929688 136.027344 141.800781 126.417969 C 127.671875 129.234375 112.050781 130.664063 100.003906 129.65625 " stroke-width="1" class="fil3" />
    <path style="fill-rule:nonzero;fill-opacity:1;" d="M 240.921875 188.253906 C 239.109375 184.820313 232.308594 172.703125 226.65625 173.632813 L 225.707031 174.964844 L 224.183594 176.726563 C 224.316406 177.101563 224.539063 177.464844 224.828125 177.78125 C 229.691406 183.113281 232.84375 186.054688 236.777344 194.601563 C 235.976563 190.625 238.027344 187.976563 240.921875 188.253906 " stroke-width="1" class="fil4" />
    <path style="fill-rule:nonzero;fill-opacity:1;" d="M 269.078125 219.167969 C 264.789063 215.484375 260.921875 211.332031 256.726563 207.53125 C 254.875 205.910156 252.882813 204.25 250.734375 202.890625 C 250.175781 202.925781 249.613281 202.953125 249.054688 202.984375 C 247.9375 204.425781 246.511719 205.789063 244.726563 207.066406 C 242.109375 208.945313 239.925781 209.851563 237.550781 210.296875 C 237.464844 211.816406 237.3125 213.304688 237.109375 214.789063 C 237.320313 214.832031 237.519531 214.878906 237.726563 214.929688 C 247.199219 211.253906 261.46875 212.484375 269.242188 227.816406 C 264.480469 223.601563 256.476563 220.09375 249.554688 221.109375 C 252.609375 223.890625 255.261719 227.4375 258.328125 231.679688 C 259.898438 233.480469 261.308594 234.792969 263.34375 236.035156 C 264.742188 236.722656 266.007813 237.191406 267.503906 237.625 C 273.808594 238.910156 280.320313 238.453125 286.648438 237.570313 C 288.488281 237.292969 290.316406 236.980469 292.121094 236.546875 L 290.894531 235.863281 C 282.953125 231.160156 276.152344 225.054688 269.078125 219.167969 " stroke-width="1" class="fil4" />
    <path style="fill-rule:nonzero;fill-opacity:1;" d="M 213.042969 235.191406 C 201.480469 257.089844 185.453125 273.285156 162.445313 282.585938 C 158.109375 284.339844 145.394531 287.570313 139.566406 286.707031 C 134.574219 285.964844 135.328125 281.875 140.449219 281.6875 C 150.976563 281.300781 162.839844 277.144531 171.742188 271.734375 C 180.21875 266.582031 189.246094 257.378906 196.074219 248.734375 C 202.289063 240.855469 206.566406 233.414063 209.316406 230.378906 C 213.480469 225.789063 214.914063 231.65625 213.042969 235.191406 M 218.261719 201.9375 C 208.972656 215.5625 198.597656 228.695313 186.996094 240.421875 C 184.632813 242.761719 182.226563 245.035156 179.761719 247.261719 C 173.195313 253.042969 166.21875 258.621094 158.539063 262.84375 C 155.3125 264.5625 152.054688 266.046875 148.636719 267.320313 L 145.023438 268.40625 L 141.433594 269.007813 L 137.988281 269.070313 L 134.71875 268.566406 L 131.679688 267.476563 L 128.988281 265.78125 L 126.761719 263.558594 L 125.113281 260.929688 L 124.089844 258.035156 L 123.648438 255.011719 L 123.769531 251.929688 L 124.390625 248.863281 L 124.796875 247.757813 C 123.605469 247.660156 122.425781 247.527344 121.21875 247.359375 C 116.648438 246.640625 112.050781 245.640625 107.785156 243.835938 C 104.070313 247.492188 100.511719 251.328125 97.140625 255.28125 C 94.875 258.078125 91.601563 260.585938 93.410156 264.285156 C 94.386719 266.839844 96.027344 269.371094 98.164063 271.875 C 97.6875 269.828125 97.644531 267.789063 97.988281 265.59375 C 98.460938 262.746094 100.746094 258.710938 102.476563 259.175781 C 102.140625 264.792969 104.222656 268.085938 106.167969 271.261719 C 108.800781 274.878906 112.007813 276.535156 114.867188 278.660156 C 120.242188 281.800781 116.925781 285.300781 113.148438 284.210938 C 109.257813 283.125 105.082031 281.003906 100.96875 281.003906 C 95.003906 281.003906 90.3125 284.621094 92.820313 290.800781 C 94.625 295.246094 97.921875 299.824219 102.097656 302.292969 C 106.578125 304.945313 111.34375 304.90625 115.945313 304.242188 C 121.925781 303.382813 127.382813 303.289063 131.667969 307.582031 C 133.832031 302.835938 137.347656 303.082031 143.699219 303.082031 C 151.191406 304.121094 157.476563 303.835938 169.355469 297.683594 C 171.042969 296.902344 180.367188 290.421875 182.152344 293.113281 C 182.789063 294.0625 181.792969 295.585938 180.21875 297.273438 C 172.839844 305.164063 152.644531 311.015625 141.605469 309.875 C 136.292969 309.320313 135.375 308.511719 126.308594 309.011719 C 115.765625 309.597656 111.496094 312.09375 103.726563 310.441406 C 99.242188 309.480469 96.011719 305.464844 95.003906 301.761719 C 94.90625 302.035156 94.8125 302.308594 94.726563 302.601563 C 94.257813 304.453125 94.121094 306.230469 94.074219 308.144531 C 94.027344 313.164063 94.25 318.46875 92.089844 323.144531 C 102.726563 322.324219 113.167969 320.019531 123.6875 318.34375 C 128.945313 317.546875 134.15625 316.9375 139.472656 316.578125 C 144.082031 316.351563 148.683594 316.457031 153.277344 316.003906 C 159.238281 315.308594 164.859375 313.941406 170.410156 311.636719 C 174.355469 309.898438 177.933594 307.859375 181.128906 304.945313 C 182.648438 303.46875 184.167969 302.082031 185.792969 300.71875 L 189.828125 297.835938 C 193.996094 295.167969 198.265625 292.78125 202.175781 289.726563 L 205.101563 286.976563 C 207.421875 284.292969 209.207031 281.585938 210.800781 278.417969 C 215.300781 268.984375 217.375 258.613281 218.714844 248.300781 C 219.246094 243.824219 219.511719 239.300781 220.160156 234.832031 L 221.066406 230.535156 C 222.441406 225.390625 225.320313 220.621094 226.394531 215.382813 C 227.449219 208.828125 229.035156 200.097656 223.300781 194.03125 C 221.71875 196.726563 219.992188 199.347656 218.261719 201.9375 " stroke-width="1" class="fil4" />
    <path style="fill-rule:nonzero;fill-opacity:1;" d="M 319.230469 148.449219 C 314.925781 153.414063 308.8125 155.65625 302.597656 157.070313 L 298.171875 157.773438 C 291.070313 158.515625 284.152344 158.347656 277.050781 157.839844 C 274.433594 157.636719 271.828125 157.40625 269.21875 157.207031 C 264.109375 156.875 259.320313 157.429688 254.492188 159.144531 L 252.359375 160.042969 C 247.410156 162.449219 243.128906 165.875 238.839844 169.296875 L 240.554688 170.851563 C 242.039063 172.546875 243.386719 174.230469 244.703125 176.019531 C 247.957031 168.226563 258.226563 165.84375 265.914063 167.191406 C 276.058594 168.964844 290.160156 168.945313 300.824219 163.546875 L 303.457031 162.007813 C 305.609375 161.082031 307.625 156.640625 309.910156 156.117188 C 312.445313 155.585938 315.140625 158.933594 317.503906 157.839844 C 320.363281 155.808594 320.585938 151.445313 319.230469 148.449219 " stroke-width="1" class="fil4" />
    <path style="fill-rule:nonzero;fill-opacity:1;" d="M 252.996094 191.066406 C 258.667969 190.761719 263.277344 190.003906 269.644531 187.910156 C 272.699219 186.792969 275.492188 185.515625 278.320313 183.886719 C 281.203125 182.085938 283.726563 180.128906 286.214844 177.820313 C 287.851563 176.183594 289.363281 174.460938 290.886719 172.734375 C 282.054688 175.09375 275.285156 174.328125 268.070313 173.890625 C 258.980469 173.335938 253.230469 179.628906 250.191406 185.492188 C 250.933594 187.1875 251.476563 188.875 251.808594 190.527344 C 252.207031 190.703125 252.605469 190.882813 252.996094 191.066406 " stroke-width="1" class="fil4" />
    <path style="fill-rule:nonzero;fill-opacity:1;" d="M 113.941406 194.632813 C 104.375 199.058594 100.773438 192.5 99.53125 183.714844 C 98.660156 177.574219 98.324219 169.792969 98.601563 164.472656 C 94.679688 165.195313 92.726563 169.117188 87.730469 172.078125 C 88.816406 174.183594 91.167969 179.40625 92.429688 181.464844 L 93.433594 183.308594 L 94.847656 187.316406 C 95.242188 189.128906 95.523438 190.890625 95.722656 192.75 C 96.007813 195.878906 96.019531 199.179688 97.550781 202.007813 C 98.324219 203.074219 99.246094 203.949219 100.191406 204.890625 C 101.484375 206.371094 102.582031 207.800781 103.667969 209.457031 C 104.042969 210.128906 104.378906 210.773438 104.699219 211.4375 C 107.425781 204.464844 116.859375 201.304688 113.941406 194.632813 M 220.722656 149.71875 C 219.722656 139.789063 212.195313 135.542969 210.492188 145.050781 C 209.949219 151.921875 210.292969 156.632813 203.652344 158.398438 C 200.023438 159.363281 195.015625 159.515625 193.417969 156.167969 C 190.726563 150.539063 195.648438 142.257813 189.410156 138.8125 C 179.332031 141.828125 169.132813 144.820313 158.867188 147.777344 C 154.027344 151.847656 146.214844 158.378906 143.253906 161.347656 C 138.898438 165.710938 132.34375 159.617188 125.992188 157.054688 C 118.398438 159.148438 112.171875 160.84375 104.613281 162.863281 C 103.402344 169.769531 102.871094 180.910156 106.777344 184.820313 C 109.144531 187.183594 113.511719 188.46875 118.414063 185.5 C 122.492188 183.039063 128.667969 184.734375 130.296875 183.101563 C 131.101563 182.304688 129.675781 180.601563 127.800781 179.660156 C 125.960938 178.734375 124.332031 178.96875 123.023438 179.144531 C 121.8125 179.3125 119.453125 179.234375 119.023438 177.71875 C 118.746094 176.730469 119.410156 175.445313 120.382813 174.75 C 123.449219 172.5625 129.761719 172.910156 133.0625 174.355469 C 135.371094 175.359375 137.414063 177.140625 138.175781 179.96875 C 142.011719 183.714844 145.304688 187.5625 147.984375 191.628906 C 149.449219 193.867188 149.441406 196.992188 146.089844 194.472656 C 144.390625 193.1875 142.363281 191.195313 141.976563 190.804688 C 140.503906 189.335938 138.984375 187.722656 137.332031 186.382813 C 133.285156 190.027344 122.484375 189.320313 118.058594 192.285156 C 117.726563 192.503906 117.402344 192.707031 117.082031 192.90625 C 119.464844 194.730469 120.875 195.847656 119.15625 200.4375 C 123.769531 198.21875 131.160156 198.238281 133.964844 202.6875 C 139.207031 199.84375 145.976563 196.679688 151.789063 199.429688 C 157.605469 202.1875 154.136719 212.699219 158.726563 216.371094 C 152.296875 216.371094 152.398438 212.140625 150.488281 208.195313 C 147.507813 202.039063 138.863281 203.292969 133.964844 204.828125 C 134.519531 205.679688 135.75 207.65625 136.113281 208.335938 C 124.917969 202.859375 116.949219 205.984375 110.367188 210.613281 C 111.105469 218.464844 121.363281 215.203125 125.410156 215.203125 C 127.921875 215.203125 126.9375 216.367188 127.359375 218.265625 C 127.710938 219.816406 137.246094 222.867188 129.035156 222.867188 C 123.878906 222.867188 117.335938 218.96875 113.15625 223.148438 C 110.375 225.941406 111.066406 219.664063 111.066406 219.664063 C 111.066406 217.089844 107.78125 215.027344 106.152344 213.34375 C 105.996094 213.472656 105.84375 213.597656 105.691406 213.726563 C 105.929688 214.320313 106.152344 214.945313 106.355469 215.589844 C 107.175781 218.640625 107.558594 221.589844 107.839844 224.734375 C 108.039063 227.027344 108.09375 229.820313 109.699219 231.640625 C 111.34375 233.171875 113.554688 233.835938 115.695313 234.425781 C 115.121094 232.539063 114.601563 230.300781 116.316406 230.300781 C 119.230469 230.300781 122.75 233.128906 124.257813 236.175781 C 128.675781 236.726563 133.222656 236.65625 137.3125 235.335938 C 139.515625 232.121094 143.320313 229.460938 142.203125 225.558594 C 147.898438 223.359375 143.164063 233.96875 149.617188 230.046875 C 152.050781 228.847656 154.367188 226.476563 153.695313 224.703125 C 154.914063 223.042969 157.21875 225.148438 157.832031 227.015625 C 167.402344 222.878906 174.820313 218.578125 180.386719 209.449219 C 185.308594 201.363281 186.082031 192.769531 186.554688 181.363281 C 186.679688 178.21875 187.167969 175.8125 188.957031 174.460938 C 191.597656 172.484375 192.519531 175.113281 192.691406 176.777344 C 193.199219 181.761719 192.867188 189.667969 191.75 194.414063 C 190.78125 198.511719 189.75 201.605469 188.566406 204.917969 C 190.027344 202.898438 191.210938 200.753906 192.234375 198.359375 C 194.820313 191.859375 195.65625 185.140625 195.84375 178.191406 C 195.882813 175.238281 197.820313 166.082031 202.765625 168.386719 C 208.160156 170.902344 209.503906 176.535156 217.308594 166.945313 C 218.902344 164.996094 219.703125 162.453125 220.332031 160.03125 C 220.90625 156.691406 221.066406 153.167969 220.722656 149.71875 M 138.679688 246.914063 C 138.511719 246.957031 138.339844 247 138.179688 247.039063 L 138.128906 247.089844 C 136.457031 249.5 133.992188 253.417969 135.824219 256.347656 C 137.550781 258.074219 140.234375 257.535156 142.40625 257.175781 L 144.964844 256.402344 C 145.089844 256.355469 145.21875 256.304688 145.34375 256.257813 C 141.519531 255.09375 141.554688 249.71875 138.679688 246.914063 M 166.046875 235.960938 C 174.679688 231.855469 182.734375 226.523438 189.929688 220.1875 C 186.386719 224.355469 182.707031 228.390625 178.859375 232.277344 C 175.722656 235.390625 172.476563 238.394531 169.117188 241.238281 C 164.171875 245.433594 159.214844 248.488281 153.917969 252.128906 C 153.261719 250.117188 154.515625 247.332031 159.957031 242.824219 C 155.546875 243.488281 151.925781 243.605469 151.125 241.769531 C 154.09375 240.691406 163.199219 237.320313 166.046875 235.960938 " stroke-width="1" class="fil5" />
  </g>
</svg>