<?xml version="1.0" standalone="no"?>
<!DOCTYPE svg PUBLIC "-//W3C//DTD SVG 20010904//EN"
 "http://www.w3.org/TR/2001/REC-SVG-20010904/DTD/svg10.dtd">
<svg version="1.0" xmlns="http://www.w3.org/2000/svg"
 width="175.000000pt" height="175.000000pt" viewBox="0 0 175.000000 175.000000"
 preserveAspectRatio="xMidYMid meet">

<g transform="translate(0.000000,175.000000) scale(0.100000,-0.100000)"
fill="#476cdc" stroke="1px">
<path d="M135 1731 c-44 -20 -82 -57 -114 -111 -21 -35 -21 -42 -21 -741 l0
-707 32 -48 c18 -27 53 -62 76 -79 l44 -30 701 -3 c788 -3 754 -6 822 70 68
75 65 36 65 798 0 757 3 722 -61 795 -69 78 -28 75 -809 75 -655 0 -697 -1
-735 -19z m622 -643 l113 -112 113 112 c122 120 143 130 185 92 43 -40 31 -64
-90 -187 l-112 -113 112 -113 c120 -122 130 -142 90 -184 -40 -43 -62 -32
-185 89 l-113 112 -113 -112 c-122 -120 -142 -130 -184 -90 -43 40 -32 62 89
185 l112 113 -112 113 c-121 123 -133 147 -90 187 42 38 63 28 185 -92z"/>
</g>
</svg>
