<?xml version="1.0" encoding="utf-8"?>
<!-- Generator: Adobe Illustrator 24.0.0, SVG Export Plug-In . SVG Version: 6.00 Build 0)  -->
<svg version="1.1" xmlns="http://www.w3.org/2000/svg" xmlns:xlink="http://www.w3.org/1999/xlink" width="2048px" height="2048px" x="0px" y="0px"
	 viewBox="0 0 2048 2048" style="enable-background:new 0 0 2048 2048;" xml:space="preserve">
<g id="Layer_1" style="fill:#094C99">
	<path d="M1514.6,685.6c0,0,55.6-9.4,93.1-29.7s62.6-32.1,62.6-32.1s80.6,90,103.3,122.1s68.9,121.3,80.6,158.9
		c11.7,37.6,34.4,139.3,57.9,162c23.5,22.7,101.7,59.5,101.7,59.5l-7,363.9l2.3,402.3c0,0-187.8,130.3-296.6,138.3
		s-194.9,34.7-377.2-13.1c-182.3-47.7-287.2-89.2-287.2-89.2s10.2-235.6,9.4-290.3c-0.8-54.8-9.4-468-9.4-468s79-96.3,119-189.4
		c39.9-93.1,101-190.2,124.4-226.2c23.5-36,72-106.4,72-106.4s38,15.1,79,27.4C1481.7,687.2,1514.6,685.6,1514.6,685.6z"/>
	</g>
<g id="Layer_2" style="fill:#094C99">
	<path d="M523.8,756.1l119-59.5c0,0,175.3,234.8,212.9,280.2c37.6,45.4,168.3,195.7,168.3,195.7s-43.1,187.8-43.1,350.6
		s9.4,383.5,9.4,383.5s-283.3,110.6-466.4,117.4S18.2,1897.1,18.2,1897.1s6.3-419.5,0-529c-6.3-109.6-7.8-281.7-7.8-281.7l169-173.7
		l195.7-222.3L523.8,756.1z"/>
</g>
<g id="Layer_3" style="fill:#094C99">
	<path d="M73,596.4L58.9,422.7c0,0,79.8-26.6,106.4-109.6s45.4-140.9,73.6-189.4s57.9-83,57.9-83s47,14.1,81.4,15.7
		c34.4,1.6,62.6-3.1,62.6-3.1s7.8,53.2,28.2,101.7c20.3,48.5,87.7,175.3,87.7,175.3s73.6,79.8,97,92.3v180c0,0-186.3-11-342.8-9.4
		C154.4,594.9,73,596.4,73,596.4z"/>
</g>
<g id="Layer_4" style="fill:#094C99">
	<path d="M760.1,602.7V450.9c0,0,92.3-34.4,115.8-93.9c23.5-59.5,43.8-142.4,43.8-142.4l40.7-106.4c0,0,45.4,1.6,75.1,0
		c29.7-1.6,51.7-7.8,51.7-7.8s62.6,67.3,79.8,112.7s31.3,111.1,67.3,138.5c36,27.4,87.2,61.8,87.2,61.8v183.1L760.1,602.7z"/>
</g>
	<g id="Layer_5" style="fill:#fe4f0c">
		<rect x="0.3" y="983"  width="1024" height="54.8"/>
	</g>
	<g id="Layer_6" style="fill:#fe4f0c">
		<rect x="0.3" y="1164.6"  width="1016.3" height="54.8"/>
	</g>
	<g id="Layer_7" style="fill:#ffffff">
		<rect x="0.3" y="1037.8"  width="1032.2" height="126.8"/>
	</g>
	<g id="Layer_8" style="fill:#fff">
		<rect x="0.3" y="416.4" width="1420.3" height="76.7"/>
	</g>
	<g id="Layer_9" style="fill:#fe4f0c">
		<rect x="0.3" y="385.1"  width="1420.3" height="34.4"/>
	</g>
	<g id="Layer_10" style="fill:#fe4f0c">
		<rect x="0.3" y="492.3"  width="1420.3" height="34.4"/>
	</g>
	<g id="Layer_11" style="fill:#fe4f0c">
		<rect x="1350.5" y="0" width="697.5" height="602.7"/>
	</g>
	<g id="Layer_12" style="fill:#E9E9E9">
		<rect x="931.7" y="737.6" width="201.2" height="201.2"/>
	</g>
</svg>
